<svg version="1.0" xmlns="http://www.w3.org/2000/svg" width="376" height="376" viewBox="0 0 282 282"><path d="M161.4 18.5c-2.8 1.4-6 4-7.4 6.2-2.4 3.5-2.5 4.4-3.2 25.2-.4 16.1-1 23-2.3 27.1-4.1 13-11.7 23.6-21.9 30.4-8.2 5.4-8.2 5.4-7.8-.9.7-11.2-6.4-19.5-17.6-20.2C89.7 85.5 88 83.5 88 70.5c0-4.6-.5-9.6-1.1-11.2C84.5 52.9 76 47 69 47s-15.5 5.9-17.9 12.3c-.6 1.6-1.1 6.4-1.1 10.8 0 9.3-1.8 14.6-5.2 15.3-1.3.3-4.9.7-8 .9C26.4 87 19 94.9 19 105.4c0 11.5 9.3 19.6 22.5 19.6 6.7 0 7.9 2.1 8.5 14.9.6 12 1.9 15.4 7.6 19.8 3 2.2 5 2.8 10.3 3.1 6.2.4 6.9.2 12-3.2 2.9-2 6.2-3.6 7.3-3.6 1.9 0 2 .6 1.6 9-.4 11.6-1.7 13.1-11.8 14.1-12.1 1.1-19.3 8.3-19.3 19.4S66.9 218 79.2 218c7.9 0 9 1.9 9.8 16.2.5 10 .8 10.9 3.6 14.4 8.4 10.4 24 10 31.1-.8 2.5-3.7 2.9-5.3 3.3-14.9.6-13.3 1.1-14 11.1-15 3.9-.5 8.2-1.5 9.5-2.3 1.3-.9 2.5-1.6 2.8-1.6s.6 6.9.8 15.4l.3 15.4 3.1 3.8c8.4 10.4 24 10 31.1-.8 2.8-4.1 2.8-4.2 3.4-26.2.5-19.4.8-22.9 2.8-28.6 7.9-22.6 27.1-37 49.3-37 10.3 0 15.3-1.5 19.8-6 6.8-6.8 7.6-17.1 2-24.8-4-5.5-8.5-7.3-22.5-8.7-10.2-1.1-13.4-1.8-19.8-4.8-13-6-23.1-17.2-28.5-31.5-2.4-6.2-2.6-8.2-3-28.2-.3-18.2-.7-22-2.2-25-2.3-4.5-5.6-7.5-10.2-9.5-5.3-2.1-9.7-1.9-15.4 1m11.4 14.7c.8.8 1.2 6.7 1.2 19.8 0 15.3.4 20.1 2 26.4 7.5 29.3 32.6 50.3 62.8 52.5 5.6.4 10.7 1.2 11.3 1.8s.9 2.1.7 3.4c-.3 2.3-.8 2.4-9.8 3.2-30.9 2.4-54.1 20.1-64.1 48.7-1.9 5.7-2.3 9-2.7 27.5-.2 11.5-.8 21.8-1.3 22.7-1.1 2.1-4.2 2.4-5.7.5-.6-.7-1.2-9.8-1.4-21.7-.4-19.9-.5-20.8-3.5-29.3-10-28.4-33-46.3-62.3-48.5-8.4-.6-10.5-1-11.4-2.5s-.7-2.2 1.3-3.8c1.8-1.5 3.9-1.9 9.1-1.9 15.9 0 33.6-7.7 45.9-20 8.8-8.7 14-17.2 17.8-28.5 2.4-7.4 2.7-9.6 3-28.5.2-11.3.6-21.1.8-21.8.6-1.5 4.7-1.6 6.3 0M72.4 64.6c.3.9.6 5 .6 9.1 0 9.6 1.4 14.3 5.9 19.4 4.3 5.1 10 7.8 16.4 7.9 5.7 0 8.7 1.4 8.7 3.9 0 2.8-1.9 3.8-8.8 4.4-8.3.7-14.5 4.4-18.7 11.1-2.7 4.5-3 6-3.5 15.4-.4 8.6-.8 10.7-2.2 11.6-1.3.8-2.3.8-3.5 0-1.5-.9-1.9-3-2.3-11.6-.5-9.4-.8-10.9-3.5-15.4-4.2-6.7-10.4-10.4-18.7-11.1-6.5-.6-8.8-1.6-8.8-3.9 0-2.7 3.1-4.4 8.3-4.4 6.8-.1 12.4-2.7 17-8 4.5-5.3 5.7-9.2 5.7-19.2 0-9.5.5-10.8 4-10.8 1.6 0 3 .7 3.4 1.6m38.4 92.6c.8.8 1.2 4.6 1.2 10.2 0 6.7.5 10.2 1.9 13.1 3.8 8.3 11.7 13.4 20.8 13.5 3.3 0 5.7.6 6.7 1.6 3.3 3.2 1.1 6.4-4.4 6.4-9.7 0-18.5 5.1-22.5 13-2.1 4.1-2.5 6.4-2.5 13.5 0 9.2-1 12.5-3.8 12.5-3.3 0-4.2-2.2-4.2-10.5 0-10.8-2-16.3-7.6-21.5-5.3-4.9-7.9-6-16.4-6.8-5.9-.6-6.5-.9-6.8-3.1-.5-3.4 2.2-5.1 8-5.1 9.2 0 16.2-4.7 20.4-13.5 1.9-4 2.4-6.7 2.4-13.2 0-4.5.3-8.8.6-9.7.7-1.9 4.5-2.1 6.2-.4"/></svg>