<svg version="1.0" xmlns="http://www.w3.org/2000/svg" width="378.667" height="378.667" viewBox="0 0 284 284"><path d="M127 11.1c-14.7 1.8-31.4 7.4-41.7 13.9l-4.8 2.9-1.8-2.4c-2.5-3.4-7.8-4.9-12.1-3.5S59.8 26.1 56 33.8c-2.8 5.7-3.6 6.5-9.3 9.2-3.5 1.6-7.6 4.3-9.2 6-2.5 2.6-3 3.9-3 8.1 0 4.4.4 5.4 3.1 7.9 1.7 1.5 3.7 2.9 4.3 3.1.7.3 0 3-2 7.8-7.9 18.7-10.6 41-7.5 60 1 5.7 1.6 10.4 1.4 10.5-.2.2-2.7 1.6-5.6 3.1-6.6 3.6-9.2 7-9.2 12.3 0 6.1 2.8 8.6 17.9 16.1l13.6 6.9 5.8 11.6L62 208v25.6l7.3 7.1c8.8 8.7 15 12.7 24.2 15.6 6.7 2.1 8.6 2.2 46 2.2s39.3-.1 46-2.2c9.2-2.9 15.4-6.9 24.3-15.6l7.2-7.1v-14c0-13.8 0-14-2.7-16.8l-2.6-2.7 6.4-6.9c20.4-21.5 31.3-51.2 29.6-80.2-1.6-25.9-11.3-48.8-28.7-67.3-10.7-11.4-18.9-17.6-31.5-23.8-19.7-9.7-40.4-13.4-60.5-10.8m35 17.5c45.5 12.1 75 54.4 69.9 100.1-4.1 38-30 68.5-67.6 80-7.8 2.3-10.6 2.6-23.8 2.7-16.4.1-23.9-1.2-36.8-6.5-6.9-2.9-18.2-9.3-19.2-10.9-.3-.5 1-4.1 3-8l3.5-7 10.3-5.1c11.8-5.9 14.7-8.2 14.7-11.9 0-4.4-2.8-6.9-14-12.5L91.1 144l-5.8-11.2c-6.4-12.5-9-15-14-13.3-2.3.8-4 3.3-8.9 12.9-5.4 10.5-8.5 14.4-11.5 14.6-.3 0-1.4-3.7-2.5-8.3-2.6-11.8-2.4-29.4.4-41.2C52 84.8 61 66.1 61 72.4c0 .8 1.3 2.8 2.9 4.5 5 5.4 10.3 3.6 14.6-4.9 1.9-3.7 3.3-5.1 5.9-6 3.9-1.3 8.6-6.2 8.6-9 0-2.6-4.4-7.5-8-9-1.6-.7-3-1.6-3-2 0-1 9.6-7.3 16.6-10.8 7.1-3.5 13.9-5.8 23-7.7 9.2-1.9 31.5-1.3 40.4 1.1M72.5 47.1c2.2 4.1 3.5 5.5 7.7 7.4l5 2.3-5.1 2.6c-4.1 2.1-5.6 3.6-7.7 7.9l-2.7 5.2-2.5-5.2c-2.1-4.2-3.4-5.5-7.4-7.4-2.6-1.2-4.8-2.5-4.8-2.9 0-.3 2-1.6 4.4-2.7 3.3-1.6 5.2-3.5 7.3-7.2 1.5-2.8 2.9-5.1 3-5.1.2 0 1.4 2.3 2.8 5.1M80 139l5.5 11.2L97 156l11.5 5.8-11.6 5.7-11.6 5.8-5.4 11c-3 6-5.7 11.1-6.1 11.3-.4.3-3.3-4.6-6.4-10.9l-5.7-11.4-11.6-5.8-11.6-5.7 11.8-5.9L62 150l5.7-11.5c3.1-6.2 5.9-11.2 6.2-11 .4.2 3.1 5.4 6.1 11.5m2.5 77.9c5.8 5.3 12.9 8.8 20.6 10.1 8.3 1.3 64.5 1.3 72.8 0 7.7-1.3 14.8-4.8 20.6-10.1 2.3-2.1 4.5-3.9 4.9-3.9.3 0 .6 3.3.6 7.4v7.3l-4.6 4.3c-2.5 2.3-7.5 5.6-11.2 7.3l-6.7 3.2h-80l-6.5-3.1c-3.6-1.7-8.6-5-11.2-7.3l-4.8-4.3v-7.4c0-4.1.3-7.4.6-7.4.4 0 2.6 1.8 4.9 3.9"/><path d="M173.8 65.2c-3.4 7.1-3.8 7.4-10.7 10.7-3.9 1.9-7.1 3.8-7.1 4.1s3.2 2.2 7.1 4.1c7 3.3 7.2 3.5 11.1 11.4l4 8 3.9-7.8c3.9-7.6 4-7.7 11.6-11.6l7.8-3.9-8-4c-7.9-3.9-8.1-4.1-11.4-11.1-1.9-3.9-3.8-7.1-4.1-7.1s-2.2 3.3-4.2 7.2"/></svg>