<?xml version="1.0" standalone="no"?>
<!DOCTYPE svg PUBLIC "-//W3C//DTD SVG 20010904//EN"
 "http://www.w3.org/TR/2001/REC-SVG-20010904/DTD/svg10.dtd">
<svg version="1.0" xmlns="http://www.w3.org/2000/svg"
 width="64.000000pt" height="64.000000pt" viewBox="0 0 64.000000 64.000000"
 preserveAspectRatio="xMidYMid meet">

<g transform="translate(0.000000,64.000000) scale(0.100000,-0.100000)"
fill="#000000" stroke="none">
<path d="M29 611 l-29 -29 0 -259 c0 -229 2 -260 18 -279 33 -41 51 -44 306
-44 l245 0 36 35 35 36 0 247 c0 217 -2 251 -17 272 -34 49 -33 49 -306 50
l-259 0 -29 -29z m535 -32 l26 -20 0 -239 c0 -235 0 -239 -22 -254 -19 -13
-60 -16 -252 -16 -304 0 -276 -28 -276 272 l0 229 25 24 24 25 224 0 c212 0
226 -1 251 -21z"/>
<path d="M93 534 c-4 -11 23 -45 91 -113 l96 -96 -95 -95 c-52 -52 -95 -100
-95 -108 0 -7 7 -15 16 -19 11 -4 45 23 113 91 l96 96 95 -95 c52 -52 100 -95
108 -95 7 0 15 7 19 16 4 11 -23 45 -91 113 l-96 96 95 95 c52 52 95 100 95
108 0 7 -7 15 -16 19 -11 4 -45 -23 -113 -91 l-96 -96 -95 95 c-52 52 -100 95
-108 95 -7 0 -15 -7 -19 -16z"/>
</g>
</svg>
