<svg version="1.0" xmlns="http://www.w3.org/2000/svg" width="221.333" height="221.333" viewBox="0 0 166 166"><path d="M31.8 26.3c-1.4 1.2-3.1 3.2-3.7 4.4-.7 1.4-1.1 12.8-1.1 33.5v31.4l-5.4 5.3c-3 3-6 6.7-6.7 8.2-2.4 5.8.9 12.4 7.4 14.8 1.9.7 21.8 1.1 59.5 1.1 63.9 0 61.9.2 65.6-7.3 2.6-5.5 1.2-9.7-5.9-16.7l-5.5-5.4V64.7c0-26.5-.2-31.4-1.6-34.3-3.1-6.5-2.4-6.4-53.6-6.4H34.5zm95.2 7.6c.6 1.3 1 13.8 1 33.8v31.9l6 5.9c4.1 4 6 6.7 5.8 8-.3 2-1.2 2-58.4 2.3-67.7.3-63.6 1-52.9-9.8l6.5-6.6V66.9c0-23.9.3-32.8 1.2-33.7S48.6 32 81.7 32c42.7 0 44.3.1 45.3 1.9"/><path d="M39 65.5V95h84V36H39zm-1.3 37.3c-2 2.1-3.7 4.1-3.7 4.5s7.2.7 16.1.7c15.6 0 16 .1 15.4 2s-.2 2 16 2c16.3 0 16.6 0 15.5-2-1-2-.8-2 15-2 8.8 0 16-.4 16-.8s-1.7-2.5-3.8-4.5l-3.8-3.7h-79z"/></svg>