<svg version="1.0" xmlns="http://www.w3.org/2000/svg" width="221.333" height="221.333" viewBox="0 0 166 166"><path d="M75 19.6c-8.6 5.4-9.2 18-1.2 23.9C78 46.6 87 46.3 90.5 43c3.1-2.8 5.5-7.8 5.5-11.2 0-3.6-3.8-10.2-6.9-12.1-3.6-2.1-10.8-2.2-14.1-.1m-40.7 11C31 32.2 28 37.2 28 41c0 3.5 3.1 7.8 6.8 9.6 10.9 5.2 21.3-9.1 12.7-17.5-3.8-3.7-8.9-4.7-13.2-2.5m87.1-.9c-1.2.2-3.4 1.8-5 3.4-5.7 6-2.9 16.3 4.9 18.3 5.2 1.3 9.7-.3 12.5-4.4 5.7-8.4-2.2-19.4-12.4-17.3m-59.3 24C56.8 57.9 56 61 56 77.8c0 13.4.2 15.2 2 17.5 1.1 1.4 3.4 2.8 5 3.2 3.6.8 3.6 1.1 4.8 22.5.5 8.5 1.4 16.5 2 17.7 1.4 2.6 7.3 3.7 16.3 3.1 8.8-.6 9-1 10.1-18.5 1.1-18.9 2-24.8 3.6-24.9.6-.1 1.9-.2 2.7-.3.8 0 2.3-1.1 3.5-2.3 1.8-2 2-3.5 2-17.7 0-17.6-.9-20.8-6.9-24.8-3.2-2.2-4.4-2.3-19.5-2.3-15.9 0-16.1.1-19.5 2.7M24.2 59c-5.1 3.1-6.2 7.1-6.2 21.5 0 11.2.2 12.7 2 14.5 1.1 1.1 2.9 2 3.9 2 2.7 0 3 1.3 3.7 17.7.9 18.1 1 18.3 11.7 18.3 11 0 10.8.2 12.3-18.6.9-11.4 1-16.9.2-19.5-.6-2.2-.9-10.4-.6-20.8l.3-17.1h-12c-10.3 0-12.5.3-15.3 2m88.6 15c.3 11 .1 18.5-.7 21.3-.9 3.2-.8 7.8.2 19.6 1.6 18.2 1.5 18.1 12.3 18.1 10.4 0 11-.9 11.8-18.7.8-16 1.1-17.3 3.5-17.3 1 0 2.6-.9 3.7-2.1 1.5-1.7 2-4 2.2-12.1.5-14.2-.3-18.5-4.3-22.5l-3.3-3.3h-25.8z"/></svg>