<svg version="1.0" xmlns="http://www.w3.org/2000/svg" width="221.333" height="221.333" viewBox="0 0 166 166"><path d="M43 23.6c-7.1 1.9-15.4 7.6-20.2 13.9-4.4 5.8-7.8 15.6-7.8 22.6 0 6.4 3.9 21.9 5.5 21.9.6 0 3.4-.7 6.1-1.5S32 79 32.7 79s-1.7 5-5.2 11.1c-3.6 6.1-7 12.9-7.5 15.2-2.4 10.3-.4 21.5 4.6 25.9 5.3 4.7 6.4 4.8 58.2 4.8 48.6 0 48.8 0 53.2-2.3 6-3 8.6-7.1 9.3-14.8.9-10.5-.6-16.1-7.7-28.3-3.5-6.1-6.3-11.2-6.1-11.4.1-.2 3 .4 6.3 1.2 3.3.9 6.4 1.6 6.9 1.6s2-4.5 3.3-10.1c2.2-9.1 2.3-10.6 1.2-17-2.3-13.5-9.8-23.5-22-29.2l-6.7-3.2-36-.2c-29.2-.2-37 .1-41.5 1.3m81.6 9.9c5.3 2.6 12 8.6 7.9 7-8-3-16.6-1.2-22.7 4.9-2.4 2.3-4.9 4.1-5.6 3.8-.7-.2-1.2-2.2-1.2-5.3V39H87v8h-9v-8H61v4.9c0 2.8-.4 5.3-1 5.6-.5.3-2.6-1.2-4.5-3.4-5.9-6.5-14.9-8.7-23-5.6-4.2 1.7 2.9-4.7 8-7.1 5-2.4 5.2-2.4 42.1-2.4h37zM46.5 44.4c3.7 1.6 9.1 6.4 8.2 7.3-.6.6-31 8.3-31.4 7.9-.7-.7 2-7.7 3.9-10.1 2.5-3.2 9.1-6.4 13.1-6.5 1.5 0 4.3.7 6.2 1.4M74 49.5V56h17V43h8v13h5.3c4.5 0 35 7 36.3 8.3 1 .9-.8 7.7-2 7.7-.6 0-6.3-1.4-12.6-3s-11.5-2.8-11.7-2.7c-.1.2 4.7 8.8 10.7 19.1 6.1 10.4 11 19.3 11 19.8 0 .4-24.3.8-54.1.8h-54l3.2-5.8c1.8-3.1 7-12 11.5-19.7s8.1-14.1 7.9-14.3c-.1-.2-5.8 1.1-12.5 2.8s-12.4 3-12.5 2.8c-.2-.2-.7-1.9-1.3-4l-1-3.6 16.4-4.1c9-2.3 18.4-4.1 20.9-4.1H65V43h9zm57.1-4.9c4.8 2 9.9 8.4 9.9 12.4v2.8L125.9 56c-8.3-2.1-15.2-4-15.4-4.2-1.1-1 3.2-5.2 6.9-6.9 5.1-2.3 8.4-2.4 13.7-.3m5.9 71.8c0 3.9-.6 6-2.1 8l-2 2.6H82.7c-50 0-50.1 0-52.4-2.2-1.9-1.8-2.3-3.2-2.3-8V111h109z"/><path d="M66 68.5V73h8v-9h-8zm12.2-.3c.3 4.3.3 4.3 4.3 4.3s4 0 4.3-4.3l.3-4.2h-9.2zm12.8.3V73h8v-9h-8zM66 81v4h8v-8h-8zm12 0v4h9v-8h-9zm13 0v4h8v-8h-8zM66 94v4h8v-8h-8zm12 0v4h9v-8h-9zm13 0v4h8v-8h-8z"/></svg>