<svg version="1.0" xmlns="http://www.w3.org/2000/svg" width="221.333" height="221.333" viewBox="0 0 166 166"><path d="M64.4 15c-12.2 1.8-23.5 10.2-28.9 21.5-2.7 5.5-2.9 7.1-3.3 19.6-.5 15.9.7 21.6 6.3 29.9 2 2.9 3.4 5.3 3.3 5.4-.2.1-2.7 1.3-5.7 2.6-7.4 3.4-13.6 9.7-17.4 17.8-3.1 6.5-3.2 7.2-3.5 21.9l-.4 15.3H71c63.2 0 59.5.4 66.3-7.7l3.9-4.6-.4-9.3c-.2-7-.7-9.7-2-11.1-1.4-1.5-1.8-3.7-1.8-9.6V99h13l-.2-42.3-.3-42.2-40-.1c-22-.1-42.3.2-45.1.6M141 56.5V90h-8l-.2-29.3-.3-29.2-18.4-.3-18.4-.2-4.3-4-4.4-4h54zM61.6 38.7c1.1 4.8 4.5 9.3 8.5 11.3 3.1 1.6 5.8 2 14.4 2H95v4.5c0 3.9.3 4.5 2.1 4.5 2 0 2.1.4 1.7 6.2-1 15.9-13 26.9-29.1 26.7-8.3-.1-11.8-1.2-18-5.6-5.6-3.9-10.5-13.3-11.4-21.6-.5-5.2-.4-5.7 1.4-5.7s2.1-.8 2.5-6.9c.6-7.9 3-12.8 8.1-16 4.7-3.1 8.5-2.8 9.3.6m67.4 54v19.6l-2.5-2.3c-2.5-2.3-2.5-2.5-2.5-19 0-9.2.3-17 .7-17.3.3-.4 1.5-.7 2.5-.7 1.7 0 1.8 1.3 1.8 19.7m-9-6.7v4H93l2.8-4 2.7-3.9 10.8-.1H120zm-71.5 17-3.9 4 4.2 4.3 4.2 4.3-4.2 4.2-4.3 4.2 8.5 8.5 8.5 8.5H22.7l.5-10.4c.4-8.7.9-11.3 3.2-16 4.4-9 13.5-15.3 22.6-15.5l3.4-.1zm23-2c-1.9 2-1.8 2.2 2.3 6.3l4.2 4.1 3.6-3.4c2.8-2.7 3.5-3 3.1-1.5-.4 1.1-2 7.6-3.7 14.5s-3.6 14.2-4.1 16.2l-1 3.8H63.4l-4.2-17.3c-2.3-9.4-4.2-17.6-4.2-18.1 0-.6 1.5.4 3.3 2.2l3.3 3.2 3.9-4c3.8-3.9 3.8-4 2-6s-1.8-2 2-2 3.8 0 2 2m29.4.9c3.8 2 11.1 8.6 11.1 10.1 0 .4-2.7 3.8-6 7.5-6.8 7.7-8 11.3-5.6 17 .9 2 1.6 3.9 1.6 4.1s-5.2.4-11.5.4-11.5-.3-11.5-.7 3.5-4.2 7.7-8.5l7.7-7.8-3.9-4-3.9-4 4.2-4.3 4.2-4.3-4.3-4.3-4.2-4.3 5.2.5c2.8.3 7 1.5 9.2 2.6m21.5 9.7c.9.4 1.9 2.3 2.2 4.5.6 3.4 1 3.9 3.3 3.9 3.9 0 5.1 1.8 5.1 7.6 0 6.2-.7 8.4-2.6 8.4-.8 0-1.4.4-1.4.9 0 2.8-3.4 4.1-10.6 4.1-8.7 0-12.6-1.6-14.3-5.8-1.9-4.5-.5-7.5 7.7-16.1 8-8.5 8.1-8.5 10.6-7.5"/><path d="M54.1 58.4c-1.7 2.1-1 8.7 1.2 10 3.1 2 5.2-.4 5.2-6 0-4.5-.2-4.9-2.6-5.2-1.4-.2-3.1.4-3.8 1.2m25.1-.2c-1.6 1.6-1.5 6.9.1 9.2 3.4 4.7 9.2-1.1 7.1-7.2-1-3-5-4.2-7.2-2m-13 12.5c.4 2.2 4.4 2.9 6.4 1.3 2.4-2.1 1.6-3-2.7-3-3.3 0-4 .3-3.7 1.7m-4.1 9.7c-1.5 1.8 1.7 4.5 6.1 5.2 4.4.8 10.1-1.9 9.6-4.4-.5-1.9-.8-1.9-5.6 0-2.8 1.1-3.7 1-6.2-.4-2.3-1.3-3.1-1.4-3.9-.4"/></svg>