<svg version="1.0" xmlns="http://www.w3.org/2000/svg" width="341.333" height="341.333" viewBox="0 0 256 256"><path d="M30.2 79c-10 3.4-20.2 12.2-25.1 21.8-2.6 4.9-4.1 12-4.1 19.2 0 12.6 3.8 21.7 12.5 30.5 9.4 9.4 19.2 13 33.2 12.3 9.1-.4 17.1-3.1 23-7.8 2.6-2 2.7-2 4.7-.1 9.2 8.3 30.1 10.7 42.9 4.8 3.2-1.4 7-3.6 8.4-4.7 2.6-2 2.7-2 4.7-.1 9.2 8.3 30.1 10.7 42.9 4.8 3.2-1.4 7-3.6 8.4-4.7 2.6-2 2.7-2 4.7-.1 6.1 5.5 16.7 8.5 28.3 7.9 7.3-.3 10-1 15.6-3.6 8.9-4.1 16.8-12 21-20.9 3-6.4 3.2-7.4 3.2-18.3 0-10.8-.2-11.9-3.1-18.1C244 86.4 229.3 77 212.2 77c-9.2 0-16.7 2.1-23.4 6.6-5.1 3.4-5.1 3.4-7.2 1.6-5.4-5-15.4-8.2-25.4-8.2-9.2 0-16.7 2.1-23.4 6.6-5.1 3.4-5.1 3.4-7.2 1.6-5.4-5-15.4-8.2-25.4-8.2-9.2 0-16.7 2.1-23.4 6.6-5.1 3.4-5.1 3.4-7.2 1.6-8.2-7.5-27-10.5-39.4-6.2m26.2 8.1c3 1.1 6.5 2.8 7.7 3.8l2.1 1.7-3.1 4.9C59 104 57 111.3 57 120.2c0 9.7 3.2 19.8 7.9 25.1 1.5 1.8 1.4 2-.7 3.7-4.1 3.4-13.3 6.2-20.2 6.2-33 0-47.6-41.3-22.1-62.8 8.6-7.2 23.4-9.5 34.5-5.3m56 0c3 1.1 6.5 2.8 7.7 3.8l2.1 1.7-3.1 4.9c-4.1 6.5-6.1 13.8-6.1 22.7 0 9.7 3.2 19.8 7.9 25.1 1.5 1.8 1.4 2-.7 3.7-4.1 3.4-13.3 6.2-20.2 6.2s-16.1-2.8-20.2-6.2c-2.2-1.7-2.2-1.9-.6-3.7.9-1 3-4.5 4.5-7.8 2.6-5.5 2.8-7 2.8-17.5s-.2-12-2.8-17.5c-1.5-3.3-3.5-6.8-4.4-7.8-1.5-1.6-1.5-1.9-.2-3.3.9-.8 4.2-2.6 7.5-3.9 7.7-3.2 18-3.4 25.8-.4m56 0c3 1.1 6.5 2.8 7.7 3.8l2.1 1.7-3.1 4.9c-4.1 6.5-6.1 13.8-6.1 22.7 0 9.7 3.2 19.8 7.9 25.1 1.5 1.8 1.4 2-.7 3.7-4.1 3.4-13.3 6.2-20.2 6.2s-16.1-2.8-20.2-6.2c-2.2-1.7-2.2-1.9-.6-3.7.9-1 3-4.5 4.5-7.8 2.6-5.5 2.8-7 2.8-17.5s-.2-12-2.8-17.5c-1.5-3.3-3.5-6.8-4.4-7.8-1.5-1.6-1.5-1.9-.2-3.3.9-.8 4.2-2.6 7.5-3.9 7.7-3.2 18-3.4 25.8-.4m56-.1c30.4 11.4 30.3 54.6-.2 66-10.2 3.9-25 2-32.4-4-2.2-1.7-2.2-1.9-.6-3.7.9-1 3-4.5 4.5-7.8 2.6-5.5 2.8-7 2.8-17.5s-.2-12-2.8-17.5c-1.5-3.3-3.5-6.8-4.4-7.8-1.5-1.6-1.5-1.9-.2-3.3.9-.8 4.2-2.6 7.5-3.9 7.7-3.2 18-3.4 25.8-.5M75.6 104.5c3.2 6.9 4.3 14.1 3.3 20.5-.9 5.9-5.3 16-6.9 16-.6 0-2.3-2.6-3.8-5.8-2.3-4.9-2.7-7-2.7-15.2s.4-10.3 2.7-15.3c1.5-3.1 3.2-5.7 3.8-5.7s2.2 2.5 3.6 5.5m56 0c3.2 6.9 4.3 14.1 3.3 20.5-.9 5.9-5.3 16-6.9 16-.6 0-2.3-2.6-3.8-5.8-2.3-4.9-2.7-7-2.7-15.2s.4-10.3 2.7-15.3c1.5-3.1 3.2-5.7 3.8-5.7s2.2 2.5 3.6 5.5m56 0c3.2 6.9 4.3 14.1 3.3 20.5-.9 5.9-5.3 16-6.9 16-.6 0-2.3-2.6-3.8-5.8-2.3-4.9-2.7-7-2.7-15.2s.4-10.3 2.7-15.3c1.5-3.1 3.2-5.7 3.8-5.7s2.2 2.5 3.6 5.5"/></svg>