<svg xmlns="http://www.w3.org/2000/svg" xmlns:xlink="http://www.w3.org/1999/xlink" width="402" height="402" viewBox="0 0 402 402" xml:space="preserve"><path fill="#fff" d="M202.2 397.5C94.6 397.5 7.1 310 7.1 202.4S94.6 7.3 202.2 7.3s195.1 87.5 195.1 195.1-87.5 195.1-195.1 195.1"/><path d="M202.2 11.3c25.8 0 50.8 5.1 74.4 15 22.8 9.6 43.2 23.4 60.7 41s31.3 38 41 60.7c10 23.6 15 48.6 15 74.4s-5.1 50.8-15 74.4c-9.6 22.8-23.4 43.2-41 60.7s-38 31.3-60.7 41c-23.6 10-48.6 15-74.4 15s-50.8-5.1-74.4-15c-22.8-9.6-43.2-23.4-60.7-41s-31.3-38-41-60.7c-10-23.6-15-48.6-15-74.4s5.1-50.8 15-74.4c9.6-22.8 23.4-43.2 41-60.7s38-31.3 60.7-41c23.6-9.9 48.6-15 74.4-15m0-8C92.2 3.3 3.1 92.4 3.1 202.4s89.1 199.1 199.1 199.1 199.1-89.1 199.1-199.1S312.2 3.3 202.2 3.3"/><path d="M202.2 80.4c32.6 0 63.2 12.7 86.3 35.7 23 23 35.7 53.7 35.7 86.3s-12.7 63.2-35.7 86.3-53.7 35.7-86.3 35.7-63.2-12.7-86.3-35.7c-23-23-35.7-53.7-35.7-86.3s12.7-63.2 35.7-86.3c23.1-23 53.7-35.7 86.3-35.7m0-63c-102.2 0-185 82.8-185 185s82.8 185 185 185 185-82.8 185-185-82.8-185-185-185"/><circle fill="none" stroke="#000" stroke-width="2" cx="202" cy="202" r="114"/><defs><circle id="a" cx="202" cy="202" r="114"/></defs><clipPath id="b"><use xlink:href="#a" overflow="visible"/></clipPath><path clip-path="url(#b)" stroke="#000" stroke-width="4" d="M75 86h127v117H75z"/><path clip-path="url(#b)" stroke="#000" stroke-width="4" d="M202 202h127v117H202z"/><use xlink:href="#a" overflow="visible" fill="none" stroke="#000" stroke-width="4"/><path fill="none" d="M202.2 356.5c-85 0-154.1-69.1-154.1-154.1S117.2 48.3 202.2 48.3s154.1 69.1 154.1 154.1-69.1 154.1-154.1 154.1"/><path fill="#fff" d="m62.1 90.5 16.6-16.8c6.1-6.2 12.9-7.5 18.7-1.8 3.5 3.4 4.2 7.7 2.5 12.2l.1.1c5.1-3.3 10.6-2.3 15.3 2.3 5.4 5.3 5.9 13.3-2.9 22.2l-15.7 15.9zm20.4 8.3 9.7-9.9c2.9-2.9 3.3-6.8.2-9.8-3.5-3.4-6.5-2.9-9.8.4L73 89.4zm15.2 14.9 10.6-10.7c3.6-3.7 3.7-7.8.3-11.2-3.4-3.3-7.4-3.1-11.1.6l-10.6 10.7zm78.6-89.3 12-.2 14 37.8h.1l12.4-38.2 11.8-.2.8 48.5-8.1.1-.6-37.5h-.1l-12.8 37.7-7 .1-14.1-37.2h-.1l.6 37.5-8.1.1zM314 59.9l5.8 6.4L298 97.6l.1.1 34.2-17.5 5.8 6.5-21.3 31.9.1.1 33.7-18 5.8 6.4-45.1 22.4-5.8-6.4 21.2-32-.1-.1-34.3 17.4-5.8-6.5z"/></svg>