<svg xmlns="http://www.w3.org/2000/svg" viewBox="0 -327.69 1000 1000" width="100" height="100"><path d="M786.761 823.552a1.5 1.5 0 0 1-.108-.509.5.5 0 0 1 .007.093c.165 1.743.625 5.024.999 7.478.581-1.1 1.157-2.27 1.768-3.509.46-.94.23-1.23-.173-1.38-1.156-.412-2.335-1.277-2.493-2.174zm20.065-26.425c.166 1.87 1.599 2.098 2.77.455.31-.455.661-1.01 1.079-1.64-.331-.44-.668-.868-1.021-1.306-1.636-1.918-5.523-6.058-9.286-9.306 3.743 3.532 6.028 7.844 6.458 11.797m-75.05-128.817c.173.241.323.498.474.773-.15-.295-.301-.567-.474-.772" style="fill:#000;stroke-width:3.65738297" transform="translate(-78 -609.513)"/><path style="fill:#000;stroke-width:3.65738297" d="M578.017 609.512C301.862 609.512 78 686.645 78 781.824c0 95.163 223.86 172.308 500.017 172.308 276.13 0 499.983-77.145 499.983-172.308 0-95.18-223.853-172.312-499.983-172.312m0 14.925c266.452 0 482.42 70.449 482.42 157.385s-215.968 157.4-482.42 157.4c-266.454 0-482.434-70.464-482.434-157.4s215.98-157.385 482.434-157.385M447.562 652.43a273 273 0 0 0-21.407.886c-47.692 3.975-93.085 30.563-93.17 70.928-.048 20.466 14.646 37.054 37.417 36.321 26.76-.892 48.728-22.12 60.226-48.882 4.368-10.154-3.72-14.372-7.563-8.526-6.864 10.533-16.54 18.708-27.003 23.785-12.593 6.103-26.048 4.456-30.125-5.67-5.736-14.279 6.188-35.647 33.398-45.704 39.3-14.406 80.424-4.877 119.993 2.484.564 0 2.67 1.157.805 2.119-7.087 3.821-14.058 6.936-24.931 16.196-7.79 6.609-17.991 15.405-25.882 24.987-7.83 9.444-13.383 17.868-20.73 27.204-1.023 1.348-2.283 1.288-2.269 1.288-17.9 2.992-35.428 4.998-51.473 16.048-3.317 2.266-4.758 6.289-2.745 9.373 1.81 2.729 5.942 3.02 8.815.949 9.972-7.383 20.236-10.86 32.005-11.18.514.03.76.118.905.428.092.178.035.548-.177.825-17.632 24.219-22.043 29.69-35.308 44.708-6.783 7.716-13.461 14.23-20.918 21.01-30.117 27.705-62.507 27.226-74.13 9.853-6.943-10.422-6.027-21.365-1.477-30.444 5.602-11.12 16.93-19.266 26.342-24.026 3.493-1.767 4.503-6.194 1.003-10.225-2.228-2.63-7.622-3.095-11.638-2.366-12.337 2.255-26.913 11.487-35.527 22.599-9.705 12.469-14.554 27.609-12.927 44.594 2.923 30.653 28.415 48.362 57.353 48.156 23.029-.178 44.726-7.083 70.827-33.32 24.33-24.469 46.493-61.017 67.248-94.908.649-1.082 1.116-1.666 4.268-2.054 13.02-1.612 32.238-3.45 44.561-4.155 2.74-.146 3.292-.116 4.392 1.24 3.212 4.009 8.03 7.409 11.893 9.48 1.88 1.01 2.779 1.516 4.256 1.545 1.825.036 3.245-.936 4.16-1.967 1.309-1.419 1.672-3.274.964-4.469-.736-1.255-9.332-5.973-9.584-7.88-.192-1.19 1.127-1.477 1.127-1.477 6.314-1.962 12.886-5.995 16.867-13.546 3.913-7.44 4.548-17.36-2.607-22.879-6.285-4.845-15.775-4.08-23.35 2.648-7.403 6.536-9.857 16.035-8.854 24.367.177 1.441.101 1.933-1.886 2.097-11.388.902-22.361 1.212-34.56 1.853-.818.058-1.076-.475-.601-1.034 14.05-24.171 35.028-41.38 58.233-58.33 1.538-1.143 1.068-3.314 1.008-5.128 41.895 9.013 82.381 25.788 125.846 25.431 17.973-.146 35.182-2.855 51.632-11.788 14.466-7.813 20.333-15.04 20.764-22.546.338-5.192-3.306-8.471-8.498-7.356-43.917 9.993-85.809 9.88-129.504 4.643-49.902-5.995-97.791-18.341-147.464-18.185m87.658 70.042c1.026.054 1.986.395 2.763 1.054 2.315 1.956 1.221 6.842-1.117 10.225-2.555 3.729-6.887 6.952-10.84 7.735-.792.146-1.478-.189-1.806-1.928-.644-4.602.872-10.769 5.835-15.11 1.557-1.362 3.454-2.068 5.165-1.976m352.557.892c-7.985 0-18.459.018-26.778.018-1.983 0-3.009.24-3.944 2.062-3.068 5.827-40.493 61.356-47.46 72.14-1.173 1.643-2.605 1.415-2.77-.456-.705-6.405-6.294-13.766-15.093-17.287-6.708-2.696-13.267-3.183-20.083-2.287-12.307 1.636-23.273 8.07-32.916 15.316-14.53 10.941-27.065 25.115-43.25 35.59-8.836 5.7-20.93 10.672-29.026 3.25-7.326-6.724-6.5-21.664 4.708-33.215 1.183-1.21 2.6-.2 2.376.888-1.056 5.226.245 10.422 4.248 14.065 4.89 4.337 11.887 4.83 17.877 1.936 7.069-3.468 11.222-10.163 12.433-17.763 1.877-11.792-7.29-22.193-18.759-23.025-9.317-.647-18.25 2.562-26.956 9.68-4.362 3.583-6.847 6.233-10.619 11.548-.92 1.307-2.333 1.44-2.289-.492.438-15.096-5.87-23.588-18.477-23.867-9.78-.227-20.233 5.024-28.38 11.456-8.93 7.1-16.737 16.512-25.105 25.355-1.04 1.089-1.951 1.038-2.242-1.075-.252-10-2.795-19.69-7.47-26.567-1.654-2.394-5.132-3.58-8.057-1.96-1.35.732-6.054 2.87-9.47 5.6-1.7 1.384-2.358 3.386-1.615 5.956 4.517 14.94 3.522 31.928-2.597 46.277-5.62 13.14-16.548 24.995-29.387 29.004-8.46 2.655-17.257 1.355-22.697-6.07-7.475-10.25-4.457-28.072 6.681-42.873 9.835-13.028 24.053-21.308 38.24-26.638 1.67-.637 2.014-1.697 1.543-3.102-.773-2.313-1.998-5.452-2.504-6.89-1.301-3.426-4.947-3.986-9.392-3.505-10.307 1.188-19.603 4.684-28.787 9.552-24.048 12.751-36.107 37.435-41.395 50.638-2.542 6.34-4.72 10.299-7.532 13.808-3.792 4.718-8.547 9.01-17.253 16.579-.785.694-1.372 2.143-.711 3.487.888 1.822 5.414 8.148 6.69 8.713 1.419.69 3.064-.272 3.721-.742 6.092-4.088 13.375-10.564 16.942-14.958 1.25-1.504 2.534-.873 3.196 1.411 3.328 11.756 12.042 21.352 24.09 25.365 22.05 7.365 44.928-3.295 62.19-21.849 10.975-11.791 14.934-19.376 19.136-24.531 7.126-8.746 21.186-28.307 37.93-40.868 6.141-4.628 13.41-8.161 17.064-5.817 2.932 1.879 3.88 6.256-.825 14.73-17.072 30.868-42.194 67.138-46.8 75.935-.841 1.526-.11 2.725 1.504 2.725 8.932-.042 17.79-.023 25.9-.023 1.35-.063 1.957-.672 2.632-1.616 13.1-20.307 25.432-39.638 38.649-59.62.74-1.177 1.422-.266 1.452.25.272 4.636 1.423 10.979 4.2 15.143 4.996 7.7 12.077 11.007 19.93 11.057 6.248.07 9.406-.87 16.143-3.36 5.483-2.013 9.884-4.658 13.262-7.048 1.973-1.355 2.319.915 2.267 1.263-3.028 16.122.713 35.224 16.898 43.145 19.363 9.452 40.64-3.834 52.882-15.83 1.196-1.156 2.484-1.034 2.606 1.456.26 4.58 2.349 10.016 6.176 13.82 10.258 10.194 30.96 6.155 51.733-9.767 13.338-10.194 27.294-24.595 39.902-39.847.467-.587.814-1.542-.087-2.498-1.919-1.99-4.7-4.268-6.6-6.022-.87-.729-2.143-.518-2.877.03-12.92 12.169-24.552 26.044-41.364 37.522-5.67 3.917-14.705 7.078-18.765 1.64-1.58-2.109-1.402-5.035.158-8.866 4.907-12.108 82.511-129.094 86.54-135.996.69-1.199-.037-2.08-1.567-2.08m-108.742 73.142c2.032-.018 3.935.369 5.667 1.194 9.558 4.516 6.508 15.473 2.232 24.077-.32.665-.341 1.23-.172 1.774.158.896 1.337 1.762 2.492 2.174.403.15.632.44.172 1.38-3.302 7.003-6.332 11.04-10.468 17.123-3.801 5.622-8.088 10.008-13.278 14.226-7.827 6.414-18.697 13.396-27.685 8.702-3.992-2.053-5.715-7.58-5.636-12.06.207-12.591 5.847-25.52 16.291-38.224 10.347-12.611 21.58-20.29 30.385-20.366" transform="translate(-78 -609.513)"/></svg>