<svg version="1.0" xmlns="http://www.w3.org/2000/svg" width="682.667" height="682.667" viewBox="0 0 512 512"><path d="M62.5 2c-13.8 1.6-29.6 8.6-39.1 17.2-6.8 6.2-13.5 17-16.8 27L4 53.9v401.9l2.1 6.8c6.9 22.5 22.2 37.2 46.1 44.6l7.3 2.3 190 .3c118.6.2 193-.1 198-.7 29-3.5 49.3-19.3 58.2-45.1l3.3-9.5V56.2l-2.1-6.8c-3.9-12.7-10.6-23.5-19.3-31.1-6.1-5.4-18.2-11.6-28.1-14.4l-8-2.3L260 1.4c-105.3-.1-194.2.2-197.5.6m384.7 32.1c8.3 1.8 13.5 4.5 19.2 9.9 6.3 5.9 9.1 12.3 10.6 24 1.3 10.3 1.3 365.2 0 374.5-1.6 11.4-4.5 17.7-10.6 23.5-5.7 5.4-10.9 8.1-19.2 9.9-8.3 1.7-376.8 1.5-384.2-.3-11-2.6-21-10.1-24.6-18.3-4.5-10.4-4.3-4.3-4.3-202.3s-.2-191.9 4.3-202.3c3.5-8 13.6-15.6 24.1-18.2 6.9-1.8 376.8-2.1 384.7-.4"/><path d="M131 133c-10.8 1.6-19.1 5.8-24.6 12.3-4.1 4.9-8.4 14.9-9.4 21.9-1.2 8.3-1.2 98.4 0 106.8.5 3.8 2.4 9.4 4.5 13.8 3 6 4.7 8.1 9.7 11.8 9.3 6.8 13.1 7.6 37.1 8.2l20.7.4v4.4c0 5.8-1.8 14.1-4.1 18.6-4.5 8.8-15.4 13.3-35.1 14.4l-11.8.7v31l16.3-.6c11.7-.4 18.4-1.1 24.2-2.7 25.7-6.7 40.1-20.9 45-44.4 1.3-6.5 1.5-20.7 1.5-102.6v-95l-34.7.1c-19.2.1-36.8.5-39.3.9m38 87.6v56.7l-13.5-.5c-14.7-.5-16.4-1.1-20.9-7.2-2-2.6-2.1-4.2-2.4-43.4-.4-48.4-.2-52 3.9-56.7 3.8-4.2 7.9-5.3 22.2-5.4l10.7-.1zm65-.6v88h36V164h36v144h37V163.8l12.8.4c14.6.4 18.4 1.8 21.4 7.8 1.7 3.2 1.8 8.7 1.8 69.7V308h36v-70.8c0-76.6 0-75.9-5.6-86.2-5.5-10.1-15.3-16.3-28.5-18-4.1-.5-38.6-1-77.1-1H234zm0 141.5V377h181v-31H234z"/></svg>