<svg xmlns="http://www.w3.org/2000/svg" viewBox="0 0 76 75.999" xml:space="preserve"><path d="M55.636 4.308C67.735 10.671 76 23.357 76 37.98s-8.265 27.349-20.364 33.673v-4.348A34 34 0 0 0 67.025 56.08l-11.389-4.623v-7.035l12.495 9.762c2.61-4.822 4.073-10.316 4.073-16.205 0-12.41-6.644-23.317-16.568-29.325zM38.04 0a37.86 37.86 0 0 1 17.596 4.308v4.348C50.772 5.73 45.078 3.992 39.068 3.794l4.349 31.104 12.219 9.525v7.035L37.96 44.304l-17.557 7.193v-6.996l12.298-9.604 4.31-31.104c-6.09.198-11.744 1.937-16.608 4.861V4.308C25.663 1.542 31.673 0 38.04 0m17.596 71.653c-5.299 2.766-11.27 4.346-17.596 4.346a38.3 38.3 0 0 1-17.636-4.307v-4.387c5.141 3.121 11.19 4.9 17.636 4.9a33.96 33.96 0 0 0 17.596-4.9zm-35.232.039C8.264 65.329 0 52.603 0 37.98S8.264 10.671 20.404 4.308v4.348C10.439 14.663 3.796 25.531 3.796 37.98a34.2 34.2 0 0 0 4.113 16.283l12.495-9.762v6.996L9.055 56.159a34 34 0 0 0 11.349 11.146z" style="fill-rule:evenodd;clip-rule:evenodd"/></svg>