<svg version="1.0" xmlns="http://www.w3.org/2000/svg" width="666.667" height="666.667" viewBox="0 0 500 500"><path d="M231.5.6c-1.6.2-7.3.9-12.5 1.5-30.4 3.4-64.5 14.7-91.7 30.2-56.7 32.4-98 84-116.6 145.7C3.3 202.5.5 222 .5 250s2.8 47.5 10.2 72c23.7 78.4 83.6 139.7 161.8 165.5 26.3 8.7 47.7 12 78 11.9 40.9 0 73.8-7.6 109-24.9C436 436.8 486.2 366.7 498.2 281c1.7-12.3 1.7-49.5-.1-62-5-36.5-18.5-74.2-36.7-102.3l-5.7-8.9-12.6 12.6-12.6 12.6 2.8 4.8c6.8 11.5 16.9 33.4 20.6 44.9 17.6 53.6 13.7 110.3-10.9 160.8-31.5 64.9-90.7 108.1-163 119.1-15.6 2.4-44.4 2.4-60 0C149 451.8 89.6 409 58 346c-10.3-20.5-16-38.5-20.2-63-3-17.8-3-48.2 0-66 4.2-24.5 9.9-42.5 20.2-63 20.8-41.4 53.9-74.5 95.6-95.8C174.1 47.8 192.3 42 217 37.8c16.7-2.8 47.1-3 64-.4 28 4.3 56.5 14.5 79.1 28.3l6.7 4L379.5 57l12.7-12.7-8.9-5.7c-27.4-17.8-63.6-31-98.8-36.2-9.6-1.4-46.8-2.7-53-1.8"/><path d="M376 13.4c0 3.2.5 3.6 10.6 9.7 5.8 3.5 15.3 9.9 21.1 14.3l10.5 7.9-17.8 17.8L382.5 81l4 3.2c4.8 3.8 26 24.9 29.9 29.7l2.7 3.4 17.8-17.7 17.8-17.8 3.5 4.4c6 7.3 13.2 17.9 19.4 28 5.5 9.1 6.1 9.8 9.2 9.8h3.2V10H376zM173 225.1c-3 .5-7.7 2.2-10.5 3.8-13.4 7.6-15.4 23.9-3.9 33.9 6.4 5.7 13.1 7.5 25.8 7 9.1-.3 11-.7 16.2-3.3 7.7-4 11.6-9.4 12.2-17 .9-10.7-4.3-18.3-15-22.3-6.5-2.4-17.5-3.4-24.8-2.1m14.8 8.4c6.6 5.6 6.7 20.1.2 26.7-3.8 3.8-8.2 3.8-12 0-7.1-7.1-6-23.4 1.8-27.6 3.9-2.2 6.7-1.9 10 .9m209.2-8.4c-3 .5-7.7 2.2-10.5 3.8-13.4 7.6-15.4 23.9-3.9 33.9 6.4 5.7 13.1 7.5 25.8 7 9.1-.3 11-.7 16.2-3.3 7.7-4 11.6-9.4 12.2-17 .9-10.7-4.3-18.3-15-22.3-6.5-2.4-17.5-3.4-24.8-2.1m15.7 9.4c5.8 6.6 5.4 19.5-.7 25.7-10.1 10-21.9-8.9-14.5-23.2 3.2-6.2 10.9-7.4 15.2-2.5M61 228.4c0 3.5 0 3.5 5.1 3.8l5.1.3 10.1 18.3 10.1 18.3 12-.3 11.9-.3 9.7-18 9.7-18 5.2-.3c5.1-.3 5.1-.3 5.1-3.8V225h-30v3.5c0 3.4.1 3.5 4 3.5 2.2 0 4 .3 4 .6 0 1-13.4 25.4-14 25.4-.3 0-3.7-5.9-7.7-13l-7.1-13H105v-7H61zm165 .1v3.5h10v30h-10v7h60v-20h-3c-2 0-3.2.6-3.6 1.7-2.6 8.5-6.7 11.3-16.8 11.3H256v-30h10v-7h-40zm59-.1c0 3.5 0 3.5 5.1 3.8l5.1.3 10.1 18.3 10.1 18.3 11.9-.3 12-.3 9.9-18.3 10-18.2h9.8v-7h-30v3.5c0 3.5 0 3.5 4.4 3.5h4.4l-7.1 13c-4 7.1-7.4 13-7.7 13-.6 0-14-24.4-14-25.4 0-.3 2.3-.6 5-.6h5v-7h-44z"/></svg>