<svg version="1.0" xmlns="http://www.w3.org/2000/svg" width="546.667" height="546.667" viewBox="0 0 410 410"><path d="M189 14.6c-15.1 1.4-39.2 7-53.2 12.4-14.6 5.7-30.9 14.9-44.8 25.3C51.3 82.2 24.8 126 16.9 174.9c-3.8 24-2.5 54 3.5 78.1 14.1 56.5 57 106.3 110.6 128.3 8.1 3.4 22.6 8.3 26.6 9.1 1.1.3 5.1 1.1 8.9 2 15.7 3.5 44.7 4.7 62.5 2.6 21.2-2.6 44-9.4 62.2-18.6 56.7-28.5 96.2-84 103.8-145.7 1.9-14.8.8-51.4-1.9-63.7-7.5-34.5-23.4-66-45.4-89.7-30.9-33.5-67-53.1-111.7-60.8-9.2-1.6-37.8-2.7-47-1.9m44.5 21.3c5.5 1.1 12.7 2.8 16 3.6 3.3.9 7 1.9 8.3 2.2 1.2.3 2.2 1.2 2.2 1.9 0 .8-2.4 6.7-5.4 13.1-3 6.5-10.7 23.7-17.1 38.3s-15.9 35.9-21.1 47.3c-5.2 11.5-9.4 21.2-9.4 21.8 0 .5-.4.9-.9.9-1 0-4.6-7.4-13.8-28.4-3.5-8.1-7.9-18-9.7-22-1.9-3.9-5.5-12.1-8.1-18.1-2.6-6.1-6.5-14.7-8.6-19.3-2.2-4.5-3.9-8.4-3.9-8.7s-1.8-4.3-4-8.9c-5.9-12.8-7.1-15.9-6.3-16.7 2.1-2 22.1-6.6 40.8-9.3 6.8-1 31.4.4 41 2.3m-103 37.8c4.3 9.8 9.2 20.5 10.8 23.8s3.9 8.5 5.2 11.5c2.9 6.9 11.8 26.8 18.2 41 .9 1.9 5.2 11.4 9.5 21s8.8 19.5 10.1 22l2.2 4.5 19.1.3 19 .2 2.1-4.2c1.2-2.4 4.2-9 6.8-14.8 5-11.2 7.2-16 11.5-25.5 1.5-3.3 4.2-9.4 6-13.5s4.8-10.9 6.7-15 6-13.1 9-20c3.1-6.9 7.4-16.6 9.7-21.5 2.4-5 6-13.2 8.2-18.2 2.1-5.1 4.2-9.3 4.6-9.3 3-.1 24.1 15.5 35.1 25.9 6.9 6.5 19.8 22 23.1 27.6l1.8 3.1-26.5 53.4c-46.4 93.7-60.8 122.5-61.7 123.4s-1.4-.2-10.8-21.9c-3.4-7.7-10.3-23.7-15.5-35.5l-9.3-21.5-19.6-.3-19.5-.2-4.1 9.2c-2.2 5.1-6.6 15.1-9.7 22.3-3.1 7.1-6.2 14.3-7 16-3.7 8.2-6.6 14.8-10 22.8-2.1 4.8-4.1 9-4.6 9.2-.4.3-15.4-28.8-33.2-64.7s-37.7-76-44.2-89l-11.8-23.7 3.8-5.3c8.8-12.3 22.6-26.8 34.6-36.4 7.5-6 19.9-14.3 21.4-14.4.6 0 4.6 8 9 17.7M65.7 190.1c11.3 22.8 33.8 68 49.9 100.6 16.1 32.5 30.1 59.8 30.9 60.7 2 1.9 7.8 2.1 9.3.3s14.2-29.7 35.9-79.2c10.2-23.2 13.2-29.5 14-29.5.5 0 3 5.1 5.7 11.3 2.7 6.1 6.4 14.3 8.1 18.2 1.8 3.8 5.5 12.2 8.3 18.5 2.7 6.3 6.3 14.4 8 18 1.6 3.6 5.1 11.4 7.7 17.5 8.4 19.3 11.3 25.2 13 25.9 2.7 1 7.2.7 8.3-.7 1.1-1.3 21.8-42.6 70.3-140.4 17.2-34.8 31.6-63 32-62.5 1.2 1.1 5.5 16.6 7.5 26.7 2.2 11.4 2.6 45.4.6 56-7.5 39-23.3 69.4-49.4 95.2-18.6 18.4-34.8 29.1-58.8 38.6-22 8.7-35.7 11.2-62 11.2-17.5 0-22.1-.4-31.2-2.3-50.5-10.8-92.4-41.1-117-84.8-12.1-21.3-18.1-40-21.3-65.6-1.9-15.2-1.9-21.1 0-36.9 1.7-15.1 7.7-40.1 9.1-38.6.3.3 9.8 19.1 21.1 41.8"/></svg>