<?xml version="1.0" encoding="UTF-8"?>
<svg xmlns="http://www.w3.org/2000/svg" xmlns:xlink="http://www.w3.org/1999/xlink" width="50px" height="50px" viewBox="0 0 50 50" version="1.1">
<g id="surface1">
<path style=" stroke:none;fill-rule:evenodd;fill:rgb(65.490198%,2.745098%,29.411766%);fill-opacity:1;" d="M 49.261719 24.65625 C 49.261719 28.9375 48.128906 33.21875 45.964844 36.957031 C 43.800781 40.699219 40.699219 43.800781 36.957031 45.964844 C 33.21875 48.128906 28.9375 49.261719 24.65625 49.261719 C 20.324219 49.261719 16.042969 48.128906 12.304688 45.964844 C 8.5625 43.800781 5.460938 40.699219 3.296875 36.957031 C 1.132812 33.21875 0 28.9375 0 24.65625 C 0 20.324219 1.132812 16.042969 3.296875 12.304688 C 5.460938 8.5625 8.5625 5.460938 12.304688 3.296875 C 16.042969 1.132812 20.324219 0 24.605469 0 C 28.9375 0 33.21875 1.132812 36.957031 3.296875 C 40.699219 5.460938 43.800781 8.5625 45.964844 12.304688 C 48.128906 16.042969 49.261719 20.324219 49.261719 24.605469 Z M 49.261719 24.65625 "/>
<path style=" stroke:none;fill-rule:evenodd;fill:rgb(34.901962%,51.372552%,69.01961%);fill-opacity:1;" d="M 44.339844 24.65625 C 44.339844 28.101562 43.40625 31.496094 41.683594 34.496094 C 39.960938 37.5 37.5 39.960938 34.496094 41.683594 C 31.496094 43.40625 28.101562 44.339844 24.65625 44.339844 C 21.160156 44.339844 17.765625 43.40625 14.765625 41.683594 C 11.761719 39.960938 9.300781 37.5 7.578125 34.496094 C 5.855469 31.496094 4.921875 28.101562 4.921875 24.65625 C 4.921875 21.160156 5.855469 17.765625 7.578125 14.765625 C 9.300781 11.761719 11.761719 9.300781 14.765625 7.578125 C 17.765625 5.855469 21.160156 4.921875 24.605469 4.921875 C 28.101562 4.921875 31.496094 5.855469 34.496094 7.578125 C 37.5 9.300781 39.960938 11.761719 41.683594 14.765625 C 43.40625 17.765625 44.339844 21.160156 44.339844 24.605469 Z M 44.339844 24.65625 "/>
</g>
</svg>
