<?xml version="1.0" standalone="no"?>
<!DOCTYPE svg PUBLIC "-//W3C//DTD SVG 20010904//EN"
 "http://www.w3.org/TR/2001/REC-SVG-20010904/DTD/svg10.dtd">
<svg version="1.0" xmlns="http://www.w3.org/2000/svg"
 width="128.000000pt" height="128.000000pt" viewBox="0 0 128.000000 128.000000"
 preserveAspectRatio="xMidYMid meet">

<g transform="translate(0.000000,128.000000) scale(0.100000,-0.100000)"
fill="#000000" stroke="none">
<path d="M177 952 l-37 -38 0 -195 0 -195 33 -31 c26 -25 82 -47 297 -118 192
-64 274 -96 297 -115 128 -112 351 -19 370 155 9 76 -13 130 -83 205 -34 36
-65 77 -69 91 -9 38 33 85 84 93 81 13 99 106 29 142 -74 38 -210 -37 -252
-138 -22 -51 -20 -124 4 -176 11 -24 45 -70 76 -103 43 -45 57 -67 57 -89 0
-60 -61 -94 -113 -63 -27 16 -38 42 -120 288 -72 215 -96 277 -118 298 l-28
27 -195 0 -195 0 -37 -38z m403 -30 c0 -4 -38 -46 -85 -92 l-85 -85 -93 93
-92 92 178 0 c97 0 177 -3 177 -8z m-280 -287 c-46 -47 -88 -85 -92 -85 -5 0
-8 80 -8 177 l0 178 92 -92 93 -93 -85 -85z m391 18 c45 -137 84 -255 87 -263
2 -8 -75 64 -172 160 l-176 175 87 87 c48 49 88 88 89 88 1 0 39 -111 85 -247z
m387 225 c-3 -7 -22 -16 -44 -21 -78 -16 -128 -98 -104 -171 6 -20 37 -63 67
-94 85 -86 100 -139 64 -218 -41 -89 -145 -128 -229 -85 -47 24 -59 38 -44 53
7 7 19 4 37 -10 69 -55 165 -29 206 55 30 63 16 104 -66 194 -68 74 -83 110
-71 173 9 47 44 95 86 117 40 22 104 26 98 7z m-332 -525 c-1 -1 -118 36 -260
83 l-258 86 88 89 89 89 172 -172 c95 -95 171 -173 169 -175z"/>
</g>
</svg>
