<?xml version="1.0" standalone="no"?>
<!DOCTYPE svg PUBLIC "-//W3C//DTD SVG 20010904//EN"
 "http://www.w3.org/TR/2001/REC-SVG-20010904/DTD/svg10.dtd">
<svg version="1.0" xmlns="http://www.w3.org/2000/svg"
 width="256.000000pt" height="256.000000pt" viewBox="0 0 256.000000 256.000000"
 preserveAspectRatio="xMidYMid meet">

<g transform="translate(0.000000,256.000000) scale(0.100000,-0.100000)"
fill="#000000" stroke="none">
<path d="M1870 2417 c-18 -9 -28 -25 -35 -60 -6 -27 -12 -49 -15 -49 -3 -1
-27 4 -54 11 -42 10 -52 10 -73 -5 -23 -15 -25 -20 -19 -63 13 -89 15 -84 -34
-94 -56 -11 -70 -22 -70 -56 0 -18 13 -40 40 -66 l39 -39 -39 -34 c-68 -58
-50 -110 43 -128 36 -6 38 -9 33 -33 -4 -14 -9 -45 -13 -68 -5 -39 -3 -43 21
-55 21 -9 37 -9 72 0 61 17 61 17 68 -30 14 -86 73 -105 133 -42 l34 37 38
-37 c57 -56 116 -45 127 23 9 59 16 66 54 52 54 -18 88 -14 106 14 15 23 15
28 0 72 -9 25 -16 50 -16 54 0 4 21 11 46 15 49 7 84 33 84 61 0 10 -19 36
-42 60 l-42 43 42 38 c64 59 51 101 -36 121 -24 5 -46 11 -48 14 -2 2 3 24 11
48 30 84 -8 123 -93 94 -25 -8 -47 -15 -49 -15 -1 0 -6 19 -9 42 -15 90 -78
110 -140 44 l-31 -33 -41 39 c-45 41 -54 44 -92 25z m245 -165 c-5 -6 -85 11
-85 19 0 5 15 25 33 45 l32 37 11 -49 c6 -27 10 -50 9 -52z m-166 54 c36 -37
34 -40 -23 -50 l-39 -7 7 32 c3 17 6 38 6 45 0 22 14 17 49 -20z m-128 -69
l28 -12 -38 -32 -38 -31 -16 50 -16 50 26 -7 c14 -3 39 -11 54 -18z m433 1
c-3 -13 -12 -36 -18 -51 l-11 -28 -33 34 -34 35 44 15 c58 21 60 20 52 -5z
m-153 -28 c47 -24 104 -88 119 -135 7 -20 10 -63 8 -95 -11 -152 -166 -258
-303 -206 -58 23 -128 100 -145 161 -54 191 147 363 321 275z m-356 -107 c-3
-10 -9 -30 -12 -45 -3 -16 -8 -28 -12 -28 -3 1 -24 16 -45 34 l-40 34 45 10
c66 15 72 14 64 -5z m598 -2 c16 -6 15 -9 -10 -33 -42 -40 -53 -38 -68 10
l-13 43 36 -7 c21 -4 45 -10 55 -13z m-610 -158 c3 -16 9 -36 13 -47 7 -17 4
-18 -42 -11 -27 4 -51 9 -53 11 -5 5 60 74 70 74 3 0 9 -12 12 -27z m619 -45
c-4 -3 -28 -9 -54 -13 l-48 -7 11 33 c6 19 13 40 15 47 3 9 16 3 43 -20 22
-18 37 -36 33 -40z m-537 -98 c32 -34 32 -33 -14 -49 -58 -19 -62 -17 -44 34
8 25 18 45 22 45 4 0 20 -13 36 -30z m425 5 c5 -14 13 -37 16 -50 l6 -24 -48
16 c-27 9 -51 18 -53 20 -4 3 58 61 67 63 1 0 7 -11 12 -25z m-303 -68 l42
-12 -34 -40 c-18 -22 -35 -38 -38 -35 -6 6 -21 100 -16 100 2 0 23 -6 46 -13z
m179 -4 c-2 -10 -7 -33 -11 -50 -4 -18 -8 -33 -11 -33 -2 0 -19 17 -38 38
l-35 37 42 12 c58 15 59 15 53 -4z"/>
<path d="M1260 1535 c-118 -24 -250 -80 -350 -148 -25 -17 -102 -86 -171 -154
l-126 -123 -134 0 -134 0 -110 -110 -110 -110 79 -79 78 -79 -22 -68 c-12 -38
-40 -95 -61 -128 -54 -81 -70 -141 -76 -283 l-6 -123 49 0 c90 1 228 18 279
35 28 9 77 34 110 55 33 21 84 46 114 55 l53 17 77 -76 c42 -42 81 -76 86 -76
6 0 61 51 123 113 l112 112 0 129 0 129 105 109 c125 129 183 206 236 310 62
124 90 233 96 381 l6 127 -119 -1 c-65 0 -148 -7 -184 -14z m177 -157 c-5 -84
-39 -212 -61 -235 -9 -10 -38 14 -136 112 -99 99 -122 128 -110 135 43 27 203
66 279 69 l34 1 -6 -82z m-227 -182 l134 -136 -18 -32 c-43 -73 -115 -154
-340 -377 l-235 -234 -75 73 c-76 73 -88 90 -63 90 7 0 63 51 126 114 114 114
132 147 86 154 -14 2 -54 -32 -135 -113 -63 -63 -122 -115 -130 -115 -9 0 -46
31 -83 68 l-67 68 262 260 c264 260 359 340 388 324 8 -5 76 -70 150 -144z
m-730 -281 c-58 -58 -109 -105 -114 -105 -6 0 -27 17 -48 37 l-38 37 67 68 67
68 86 0 85 0 -105 -105z m520 -437 l0 -82 -52 -53 c-29 -29 -57 -53 -63 -53
-6 0 -29 18 -50 40 l-39 40 94 95 c52 52 98 95 102 95 5 0 8 -37 8 -82z m-640
37 c11 -13 9 -19 -8 -38 -26 -27 -52 -98 -52 -139 l0 -30 48 6 c26 4 71 19
100 32 43 21 56 24 68 13 38 -31 -104 -114 -216 -126 l-63 -6 5 74 c5 76 39
171 75 211 20 22 27 22 43 3z"/>
<path d="M966 1150 c-82 -25 -121 -124 -76 -197 26 -44 68 -63 136 -63 52 0
59 3 95 39 35 35 39 44 39 89 0 43 -5 57 -31 86 -42 48 -100 64 -163 46z m95
-69 c37 -38 39 -82 4 -116 -40 -41 -92 -30 -115 25 -16 38 1 84 39 105 36 20
39 19 72 -14z"/>
</g>
</svg>
