<?xml version="1.0" standalone="no"?>
<!DOCTYPE svg PUBLIC "-//W3C//DTD SVG 20010904//EN"
 "http://www.w3.org/TR/2001/REC-SVG-20010904/DTD/svg10.dtd">
<svg version="1.0" xmlns="http://www.w3.org/2000/svg"
 width="512.000000pt" height="512.000000pt" viewBox="0 0 512.000000 512.000000"
 preserveAspectRatio="xMidYMid meet">

<g transform="translate(0.000000,512.000000) scale(0.100000,-0.100000)"
fill="#000000" stroke="none">
<path d="M630 2670 l0 -1950 1945 0 1945 0 0 1950 0 1950 -1945 0 -1945 0 0
-1950z m3810 0 l0 -1870 -1865 0 -1865 0 0 1870 0 1870 1865 0 1865 0 0 -1870z"/>
<path d="M1330 4409 c-136 -23 -277 -124 -341 -242 -33 -61 -34 -65 -35 -184
0 -107 2 -123 16 -123 9 0 27 -11 40 -25 30 -32 77 -41 122 -22 39 16 54 50
32 71 -21 21 -17 33 14 44 26 9 27 9 5 16 -47 15 -39 96 16 172 62 84 219 136
315 104 89 -29 156 -129 156 -233 0 -110 -37 -154 -219 -257 -170 -97 -242
-178 -257 -293 -9 -65 16 -126 71 -175 53 -47 100 -62 191 -62 130 0 204 66
204 181 0 30 -3 64 -6 77 -9 31 -47 30 -62 -2 -15 -34 -74 -76 -115 -83 -46
-7 -82 25 -72 65 10 43 49 75 171 143 144 79 223 149 264 232 85 174 25 401
-139 518 -94 67 -247 100 -371 78z"/>
<path d="M2485 4286 c-99 -25 -177 -83 -221 -168 -23 -42 -23 -130 -1 -180 13
-30 21 -38 43 -38 21 0 25 -3 19 -17 -87 -204 -85 -363 6 -467 55 -62 106 -80
213 -74 116 6 206 50 302 147 203 204 263 493 139 671 -37 54 -122 110 -192
126 -71 17 -240 17 -308 0z m187 -27 c261 -56 366 -336 226 -603 -44 -83 -175
-214 -252 -251 -109 -53 -195 -44 -250 27 -54 72 -58 180 -12 316 34 100 78
172 149 249 78 83 137 118 199 118 56 0 64 15 16 32 -42 16 -128 8 -186 -17
-49 -22 -138 -103 -189 -173 -30 -40 -38 -46 -45 -33 -16 28 -12 148 6 191 49
116 188 176 338 144z"/>
<path d="M3601 3916 c-7 -8 -11 -27 -9 -43 3 -25 8 -28 41 -31 59 -5 99 42 65
76 -17 17 -83 15 -97 -2z"/>
<path d="M3844 3800 c-27 -11 -79 -71 -104 -119 -11 -22 -23 -41 -28 -43 -5
-1 -23 -31 -42 -65 -45 -87 -91 -138 -114 -130 -26 10 -18 40 49 196 30 72 55
135 55 140 0 7 -24 11 -59 11 -55 0 -58 -1 -54 -23 4 -21 -30 -116 -46 -127
-4 -3 -24 -34 -44 -70 -101 -181 -154 -142 -68 50 24 52 56 114 72 138 l29 43
-58 -3 c-55 -3 -58 -4 -77 -43 -108 -212 -169 -305 -200 -305 -18 0 -25 24
-16 57 15 51 112 237 139 266 l27 28 -65 -3 -65 -3 -47 -85 c-27 -47 -48 -96
-48 -110 -1 -14 -7 -36 -15 -50 -23 -40 -19 -106 7 -124 44 -31 106 -18 160
31 26 25 26 25 33 4 22 -70 126 -67 179 5 14 18 15 18 25 -8 12 -33 39 -48 83
-48 47 0 94 32 128 87 16 27 35 55 43 63 8 8 25 35 37 60 29 59 66 107 91 121
26 14 59 -13 59 -48 0 -31 -72 -109 -116 -125 -45 -16 -47 -43 -1 -34 76 14
72 16 72 -44 0 -30 -4 -63 -7 -72 -5 -11 -43 -28 -110 -48 -247 -76 -349 -162
-304 -256 32 -67 127 -71 249 -11 90 45 179 134 225 227 25 49 40 66 71 82 22
11 51 34 65 52 26 34 96 158 96 169 0 4 -10 7 -23 7 -18 0 -29 -12 -50 -55
-29 -59 -94 -138 -108 -130 -4 3 -6 12 -2 20 3 9 2 31 -1 51 -6 27 -14 38 -38
48 l-30 13 23 16 c38 27 79 97 79 134 0 49 -29 73 -87 72 -27 0 -57 -4 -69 -9z
m-43 -509 c-60 -93 -199 -201 -259 -201 -78 0 -41 131 53 183 61 33 229 88
233 75 2 -4 -10 -30 -27 -57z"/>
<path d="M2250 3337 c-35 -12 -77 -68 -65 -87 10 -17 42 -11 48 9 2 10 16 27
30 36 24 16 28 15 74 -5 28 -12 79 -51 123 -95 158 -155 258 -199 445 -199
126 0 174 16 206 68 26 42 24 64 -9 117 -37 57 -111 99 -190 105 -53 5 -56 4
-38 -10 11 -9 26 -16 33 -16 22 0 75 -30 106 -59 89 -82 63 -175 -48 -173 -57
2 -183 44 -260 87 -33 19 -100 66 -150 106 -133 106 -228 142 -305 116z"/>
<path d="M1383 3043 c-36 -7 -73 -59 -73 -103 0 -62 33 -93 106 -98 54 -4 63
-1 92 23 40 33 50 80 27 125 -24 47 -81 67 -152 53z"/>
<path d="M1506 2566 c-90 -97 -99 -104 -122 -95 -36 13 -144 10 -179 -5 -29
-12 -32 -11 -90 41 -67 61 -107 69 -114 23 -2 -20 9 -35 53 -75 l57 -50 -21
-40 c-22 -43 -26 -117 -9 -162 15 -40 67 -92 114 -114 26 -12 63 -19 106 -19
131 0 229 83 229 197 0 58 -17 110 -43 132 -15 12 -7 24 79 115 74 79 94 106
92 126 -2 19 -10 26 -29 28 -22 3 -42 -14 -123 -102z m-166 -174 c0 -5 -9 -17
-19 -27 -19 -16 -21 -16 -50 5 -17 12 -31 23 -31 26 0 2 23 4 50 4 28 0 50 -4
50 -8z m-77 -129 c16 -26 53 -13 102 37 27 28 53 50 57 50 13 0 30 -42 30 -76
0 -72 -63 -124 -150 -124 -60 0 -101 17 -131 56 -23 29 -28 92 -10 125 10 19
12 18 52 -17 23 -21 46 -43 50 -51z"/>
<path d="M1790 2280 l0 -200 1215 0 1215 0 0 200 0 200 -1215 0 -1215 0 0
-200z m2350 0 l0 -120 -1135 0 -1135 0 0 120 0 120 1135 0 1135 0 0 -120z"/>
<path d="M1496 1856 c-90 -97 -99 -104 -122 -95 -36 13 -144 10 -179 -5 -29
-12 -32 -11 -90 41 -67 61 -107 69 -114 23 -2 -20 9 -35 53 -75 l57 -50 -21
-40 c-22 -43 -26 -117 -9 -162 15 -40 67 -92 114 -114 26 -12 63 -19 106 -19
131 0 229 83 229 197 0 58 -17 110 -43 132 -15 12 -7 24 79 115 74 79 94 106
92 126 -2 19 -10 26 -29 28 -22 3 -42 -14 -123 -102z m-166 -174 c0 -5 -9 -17
-19 -27 -19 -16 -21 -16 -50 5 -17 12 -31 23 -31 26 0 2 23 4 50 4 28 0 50 -4
50 -8z m-77 -129 c16 -26 53 -13 102 37 27 28 53 50 57 50 13 0 30 -42 30 -76
0 -72 -63 -124 -150 -124 -60 0 -101 17 -131 56 -23 29 -28 92 -10 125 10 19
12 18 52 -17 23 -21 46 -43 50 -51z"/>
<path d="M1780 1570 l0 -200 1215 0 1215 0 0 200 0 200 -1215 0 -1215 0 0
-200z m2350 0 l0 -120 -1135 0 -1135 0 0 120 0 120 1135 0 1135 0 0 -120z"/>
</g>
</svg>
