<?xml version="1.0" standalone="no"?>
<!DOCTYPE svg PUBLIC "-//W3C//DTD SVG 20010904//EN"
 "http://www.w3.org/TR/2001/REC-SVG-20010904/DTD/svg10.dtd">
<svg version="1.0" xmlns="http://www.w3.org/2000/svg"
 width="128.000000pt" height="128.000000pt" viewBox="0 0 128.000000 128.000000"
 preserveAspectRatio="xMidYMid meet">

<g transform="translate(0.000000,128.000000) scale(0.100000,-0.100000)"
fill="#000000" stroke="none">
<path d="M490 1152 c-74 -25 -96 -37 -149 -87 -29 -26 -60 -45 -82 -49 -20 -3
-47 -18 -60 -32 -21 -22 -24 -36 -26 -102 -1 -45 -9 -93 -18 -117 -12 -28 -16
-60 -13 -113 3 -68 6 -76 34 -102 21 -19 35 -44 44 -79 15 -63 74 -156 126
-199 146 -122 325 -134 481 -33 90 58 157 152 178 251 4 19 16 41 26 48 48 34
66 153 33 230 -8 21 -16 71 -17 114 -2 66 -5 80 -26 102 -13 14 -40 29 -60 32
-23 5 -55 24 -89 55 -67 62 -143 91 -247 95 -59 3 -95 -1 -135 -14z m261 -74
c70 -32 148 -103 131 -120 -8 -8 -12 -53 -12 -130 l0 -118 55 0 c52 0 55 1 55
25 0 14 4 25 10 25 32 0 43 -130 13 -162 -9 -10 -24 -18 -35 -18 -14 0 -18 -8
-18 -35 0 -55 -37 -140 -85 -192 -82 -92 -207 -137 -312 -113 -74 16 -125 42
-177 90 -56 52 -96 127 -103 195 -5 44 -9 55 -24 55 -33 0 -49 28 -49 86 0 56
12 94 30 94 6 0 10 -11 10 -25 0 -24 3 -25 55 -25 l55 0 0 118 c0 68 -4 122
-10 128 -24 24 72 103 163 136 72 26 174 20 248 -14z m-450 -128 c17 -10 19
-22 19 -110 l0 -100 -28 0 c-22 0 -29 7 -41 38 -22 61 -26 146 -6 165 19 20
29 21 56 7z m673 -3 c15 -11 17 -24 13 -73 -2 -32 -11 -76 -18 -96 -12 -31
-19 -38 -41 -38 l-28 0 0 100 c0 84 3 101 18 109 23 14 35 13 56 -2z"/>
<path d="M422 938 c6 -16 368 -19 368 -3 0 6 -70 11 -186 13 -147 2 -185 0
-182 -10z"/>
<path d="M425 880 c-3 -6 0 -12 7 -15 25 -10 358 0 361 10 3 14 -359 19 -368
5z"/>
<path d="M412 754 c-15 -11 -22 -25 -22 -50 0 -34 0 -34 -45 -34 l-45 0 0 -38
c0 -28 7 -45 24 -61 22 -21 32 -22 125 -20 83 2 104 0 119 -14 24 -22 60 -22
84 0 15 14 36 16 119 14 93 -2 103 -1 125 20 17 16 24 33 24 61 l0 38 -45 0
c-41 0 -45 2 -45 24 0 54 -33 86 -70 66 -15 -8 -20 -21 -20 -50 0 -40 0 -40
-39 -40 -22 0 -44 6 -51 15 -7 8 -25 15 -40 15 -15 0 -33 -7 -40 -15 -7 -9
-29 -15 -51 -15 -39 0 -39 0 -39 40 0 29 -5 42 -19 50 -25 13 -22 13 -49 -6z
m222 -96 c3 -7 7 -28 10 -45 5 -33 5 -33 -35 -33 l-40 0 7 38 c4 20 9 40 11
45 7 12 43 8 47 -5z m-84 -36 c0 -34 -21 -42 -110 -42 -89 0 -110 8 -110 42 0
16 11 18 110 18 99 0 110 -2 110 -18z m340 0 c0 -34 -21 -42 -110 -42 -89 0
-110 8 -110 42 0 16 11 18 110 18 99 0 110 -2 110 -18z"/>
<path d="M493 434 c-13 -35 36 -72 106 -81 43 -5 124 32 129 61 7 35 -15 41
-66 17 l-49 -23 -48 21 c-57 25 -64 26 -72 5z"/>
</g>
</svg>
