<?xml version="1.0" standalone="no"?>
<!DOCTYPE svg PUBLIC "-//W3C//DTD SVG 20010904//EN"
 "http://www.w3.org/TR/2001/REC-SVG-20010904/DTD/svg10.dtd">
<svg version="1.0" xmlns="http://www.w3.org/2000/svg"
 width="128.000000pt" height="128.000000pt" viewBox="0 0 128.000000 128.000000"
 preserveAspectRatio="xMidYMid meet">

<g transform="translate(0.000000,128.000000) scale(0.100000,-0.100000)"
fill="#000000" stroke="none">
<path d="M677 1252 c-14 -15 -28 -18 -70 -14 -78 6 -135 -26 -210 -117 -30
-37 -38 -68 -22 -84 21 -21 -27 -97 -61 -97 -42 0 -74 -42 -74 -97 0 -60 20
-90 65 -99 25 -4 36 -13 44 -34 14 -41 -9 -59 -45 -35 -43 28 -54 14 -54 -64
0 -65 -1 -69 -24 -75 -39 -10 -56 -34 -56 -80 0 -47 20 -78 58 -90 18 -6 22
-15 22 -46 0 -38 4 -42 148 -159 l147 -120 59 -1 c56 0 62 3 145 62 47 33 116
85 154 115 67 54 67 54 67 104 0 47 2 51 34 64 38 16 46 31 46 85 0 42 -18 67
-56 76 -23 6 -24 10 -24 75 0 79 -11 92 -55 63 -23 -15 -28 -15 -41 -2 -22 21
-7 47 37 64 45 19 69 52 69 96 -1 43 -21 68 -73 93 -23 11 -46 30 -52 43 -5
12 -13 22 -17 22 -5 0 -8 7 -8 15 0 8 -4 15 -9 15 -19 0 -21 39 -5 79 20 51
13 83 -30 127 -38 39 -83 45 -109 16z m-105 -256 c64 -1 68 -2 68 -23 0 -39
53 -21 107 34 22 23 23 23 41 5 11 -11 30 -42 42 -71 23 -49 25 -51 55 -45 37
7 50 -6 57 -54 6 -39 -18 -64 -57 -60 -24 3 -29 -2 -47 -50 -14 -39 -29 -59
-56 -76 -88 -54 -216 -60 -332 -15 -28 11 -70 66 -85 113 -8 24 -15 30 -32 28
-42 -6 -63 15 -63 61 0 49 26 75 60 57 27 -14 26 -15 51 38 12 26 31 57 42 69
19 21 21 21 51 6 19 -10 57 -17 98 -17z m-72 -436 l105 -86 115 93 c107 87
135 103 135 75 0 -10 -237 -202 -250 -202 -3 0 -62 44 -130 97 -94 74 -121
100 -113 110 13 16 11 17 138 -87z m420 16 c0 -35 -4 -45 -19 -49 -14 -3 -21
-17 -26 -49 -11 -70 -4 -102 23 -106 19 -3 22 -9 22 -45 l-1 -42 -125 -90
c-70 -49 -132 -94 -140 -98 -12 -7 -14 18 -14 151 l0 160 138 106 c75 58 138
106 140 106 1 0 2 -20 2 -44z m-437 -111 l87 -70 0 -153 c0 -147 -1 -153 -18
-140 -11 7 -71 56 -135 108 -96 78 -117 100 -117 122 0 20 6 27 23 30 26 4 33
36 22 106 -5 32 -12 46 -26 49 -15 4 -19 14 -19 50 l0 45 48 -39 c27 -21 87
-69 135 -108z m75 122 c40 -10 95 -3 157 19 11 4 2 -6 -20 -21 -22 -15 -51
-36 -64 -46 -26 -21 -26 -21 -106 38 -27 20 -41 33 -30 28 11 -4 39 -12 63
-18z m393 -93 c-25 -8 -47 -12 -49 -9 -5 5 56 23 78 23 8 0 -5 -6 -29 -14z
m-641 -15 c18 -11 -34 -1 -65 13 -13 5 -9 6 15 2 19 -4 42 -10 50 -15z m690
-13 c0 -6 -102 -27 -107 -22 -3 2 15 9 39 14 51 12 68 14 68 8z m-685 -27 c13
-6 5 -6 -20 -2 -22 3 -49 10 -60 14 -13 6 -5 6 20 2 22 -3 49 -10 60 -14z
m660 -18 c-11 -5 -36 -11 -55 -14 -35 -6 -34 -6 5 8 43 14 84 19 50 6z m-660
-22 c14 -6 9 -7 -15 -3 -19 4 -44 11 -55 15 -14 6 -9 7 15 3 19 -4 44 -11 55
-15z"/>
<path d="M450 912 c0 -17 37 -42 62 -42 26 0 66 35 55 47 -4 3 -19 0 -33 -7
-20 -11 -29 -12 -44 -2 -23 14 -40 16 -40 4z"/>
<path d="M640 912 c0 -17 37 -42 62 -42 26 0 66 35 55 47 -4 3 -19 0 -33 -7
-20 -11 -29 -12 -44 -2 -23 14 -40 16 -40 4z"/>
<path d="M450 782 c0 -17 119 -72 156 -72 42 0 124 27 124 41 0 5 6 9 14 9 8
0 16 7 20 15 8 21 -13 19 -78 -10 -70 -31 -98 -31 -161 0 -51 25 -75 31 -75
17z"/>
<path d="M741 424 c-50 -38 -70 -59 -63 -66 12 -12 164 90 159 106 -7 21 -25
13 -96 -40z"/>
<path d="M751 332 c-63 -46 -85 -72 -61 -72 18 0 150 94 147 104 -6 20 -24 13
-86 -32z"/>
<path d="M751 232 c-63 -46 -85 -72 -61 -72 18 0 150 94 147 104 -6 20 -24 13
-86 -32z"/>
<path d="M350 498 c1 -15 163 -148 179 -148 27 0 3 30 -74 93 -83 67 -105 78
-105 55z"/>
<path d="M360 386 c0 -15 151 -126 171 -126 24 0 -2 28 -77 82 -85 61 -94 66
-94 44z"/>
<path d="M360 298 c1 -15 163 -148 179 -148 27 0 3 30 -74 93 -83 67 -105 78
-105 55z"/>
</g>
</svg>
