<?xml version="1.0" standalone="no"?>
<!DOCTYPE svg PUBLIC "-//W3C//DTD SVG 20010904//EN"
 "http://www.w3.org/TR/2001/REC-SVG-20010904/DTD/svg10.dtd">
<svg version="1.0" xmlns="http://www.w3.org/2000/svg"
 width="256.000000pt" height="256.000000pt" viewBox="0 0 256.000000 256.000000"
 preserveAspectRatio="xMidYMid meet">

<g transform="translate(0.000000,256.000000) scale(0.100000,-0.100000)"
fill="#000000" stroke="none">
<path d="M710 2305 l-105 -105 -70 0 c-38 0 -86 -5 -106 -10 -64 -18 -151 -82
-191 -141 -70 -104 -69 -81 -66 -895 l3 -729 26 -55 c34 -73 80 -125 143 -161
l51 -29 858 0 c959 0 878 -6 959 77 83 85 78 21 78 933 l0 810 -24 38 c-32 51
-100 110 -155 135 -32 14 -74 22 -137 25 l-92 4 -103 104 -104 104 -430 0
-430 0 -105 -105z m340 -181 c80 -63 151 -121 157 -127 10 -10 -9 -31 -90 -98
-56 -48 -162 -137 -236 -199 -106 -88 -138 -110 -150 -103 -14 9 -16 44 -19
234 l-2 223 92 93 c51 51 95 93 98 93 3 0 70 -52 150 -116z m738 -296 c-3
-234 -7 -253 -50 -229 -13 6 -53 38 -89 69 -70 61 -133 115 -244 208 -38 32
-83 70 -99 85 l-29 26 158 127 159 127 98 -98 99 -98 -3 -217z m-1198 7 c0
-235 5 -264 55 -303 22 -17 41 -22 92 -22 35 0 74 5 86 12 12 6 64 47 115 90
51 43 97 78 102 78 5 0 17 -13 27 -30 l17 -30 161 0 160 0 27 32 26 32 94 -79
c51 -44 109 -88 128 -97 66 -34 160 -15 197 41 22 33 23 41 23 262 l0 229 40
0 c71 0 136 -44 176 -120 17 -31 19 -64 22 -267 l4 -233 -321 0 -321 0 0 -262
c0 -144 -2 -259 -6 -256 -3 4 -73 620 -74 656 0 1 -76 2 -170 2 -93 0 -170 -1
-171 -2 0 -2 -31 -284 -67 -628 l-67 -625 -212 -3 c-211 -2 -213 -2 -263 23
-32 16 -60 40 -77 67 l-28 42 0 731 0 732 30 48 c35 57 98 95 157 95 l38 0 0
-215z m1550 -550 l0 -65 -260 0 -260 0 0 65 0 65 260 0 260 0 0 -65z m0 -315
l0 -170 -130 -65 -130 -65 -130 65 -130 65 0 170 0 170 260 0 260 0 0 -170z
m-450 -315 c93 -47 179 -85 190 -85 11 0 70 25 130 55 60 30 114 55 120 55 16
0 12 -169 -5 -226 -8 -29 -28 -62 -47 -81 -60 -58 -85 -63 -318 -63 -193 0
-210 1 -210 18 0 9 -9 98 -20 197 -21 195 -23 215 -15 215 3 0 82 -38 175 -85z"/>
</g>
</svg>
