<?xml version="1.0" standalone="no"?>
<!DOCTYPE svg PUBLIC "-//W3C//DTD SVG 20010904//EN"
 "http://www.w3.org/TR/2001/REC-SVG-20010904/DTD/svg10.dtd">
<svg version="1.0" xmlns="http://www.w3.org/2000/svg"
 width="256.000000pt" height="256.000000pt" viewBox="0 0 256.000000 256.000000"
 preserveAspectRatio="xMidYMid meet">

<g transform="translate(0.000000,256.000000) scale(0.100000,-0.100000)"
fill="#000000" stroke="none">
<path d="M1027 2430 c-213 -38 -409 -152 -523 -303 -107 -141 -158 -305 -159
-507 0 -103 3 -124 29 -195 28 -76 60 -136 97 -180 9 -11 29 -45 45 -75 16
-30 39 -69 51 -86 13 -17 23 -36 23 -42 0 -6 12 -24 26 -42 31 -36 66 -142 88
-261 12 -64 36 -405 36 -505 0 -12 55 -14 401 -12 l401 3 32 116 c30 111 84
219 109 219 5 0 57 -10 114 -22 l104 -22 44 50 c30 33 57 81 84 149 46 114 50
147 20 169 -21 14 -21 15 16 49 l37 35 -17 47 c-19 56 -14 64 44 72 32 4 48
14 67 38 29 39 30 54 3 108 -33 63 -117 197 -154 242 -56 69 -66 99 -75 219
-10 132 -31 218 -72 302 -131 264 -398 429 -708 439 -63 2 -137 0 -163 -5z
m318 -75 c89 -24 193 -77 273 -139 177 -140 292 -370 292 -591 0 -59 29 -110
169 -304 67 -93 81 -120 79 -145 -3 -28 -7 -32 -45 -37 -23 -3 -51 -13 -62
-23 -29 -27 -44 -77 -31 -110 9 -25 8 -28 -35 -46 -74 -32 -71 -49 17 -111 20
-14 21 -20 11 -40 -6 -13 -18 -40 -26 -59 -43 -106 -54 -124 -84 -147 -29 -22
-40 -25 -83 -19 -27 4 -68 13 -91 21 -72 26 -80 22 -128 -61 -41 -71 -53 -102
-81 -211 l-11 -43 -359 0 -360 0 -1 28 c-7 293 -19 454 -43 546 -34 133 -65
195 -186 376 -56 84 -107 169 -112 189 -5 20 -16 55 -24 79 -30 90 -2 347 49
447 109 218 314 372 550 415 71 12 249 4 322 -15z"/>
<path d="M958 2118 l-117 -30 -3 -77 -3 -76 -72 -3 c-85 -3 -81 2 -113 -129
l-22 -92 41 -48 40 -48 -39 -40 -40 -41 27 -106 28 -107 75 -3 75 -3 3 -77 c2
-43 4 -78 5 -78 1 0 56 -14 122 -30 l120 -30 37 42 37 43 38 -37 38 -37 118
31 117 31 0 62 c0 34 5 66 12 73 7 7 39 12 75 12 l62 0 11 43 c6 23 20 74 30
112 l19 70 -39 40 -40 41 41 40 41 41 -20 69 c-12 38 -26 88 -32 112 l-11 42
-62 0 c-36 0 -68 5 -75 12 -7 7 -12 40 -12 79 0 77 13 68 -134 99 l-98 22 -37
-36 -37 -36 -39 40 c-21 22 -42 40 -45 39 -3 0 -58 -14 -122 -31z m298 -272
c156 -72 192 -266 71 -384 -92 -90 -222 -96 -318 -13 -137 116 -108 320 56
397 64 31 125 31 191 0z"/>
<path d="M1075 1715 c-31 -32 -35 -42 -35 -87 0 -45 4 -54 36 -84 31 -29 42
-34 86 -34 73 0 118 45 118 118 0 44 -5 55 -34 86 -30 32 -39 36 -84 36 -45 0
-55 -4 -87 -35z"/>
</g>
</svg>
