<?xml version="1.0" standalone="no"?>
<!DOCTYPE svg PUBLIC "-//W3C//DTD SVG 20010904//EN"
 "http://www.w3.org/TR/2001/REC-SVG-20010904/DTD/svg10.dtd">
<svg version="1.0" xmlns="http://www.w3.org/2000/svg"
 width="256.000000pt" height="256.000000pt" viewBox="0 0 256.000000 256.000000"
 preserveAspectRatio="xMidYMid meet">

<g transform="translate(0.000000,256.000000) scale(0.100000,-0.100000)"
fill="#000000" stroke="none">
<path d="M1027 2430 c-213 -38 -409 -152 -523 -303 -107 -141 -158 -305 -159
-507 0 -103 3 -124 29 -195 28 -76 60 -136 97 -180 9 -11 29 -45 45 -75 16
-30 39 -69 51 -86 13 -17 23 -36 23 -42 0 -6 12 -24 26 -42 31 -36 66 -142 88
-261 12 -64 36 -405 36 -505 0 -12 55 -14 401 -12 l401 3 32 116 c30 111 84
219 109 219 5 0 57 -10 114 -22 l104 -22 44 50 c30 33 57 81 84 149 46 114 50
147 20 169 -21 14 -21 15 16 49 l37 35 -17 47 c-19 56 -14 64 44 72 32 4 48
14 67 38 29 39 30 54 3 108 -33 63 -117 197 -154 242 -56 69 -66 99 -75 219
-10 132 -31 218 -72 302 -131 264 -398 429 -708 439 -63 2 -137 0 -163 -5z
m318 -75 c89 -24 193 -77 273 -139 177 -140 292 -370 292 -591 0 -59 29 -110
169 -304 67 -93 81 -120 79 -145 -3 -28 -7 -32 -45 -37 -23 -3 -51 -13 -62
-23 -29 -27 -44 -77 -31 -110 9 -25 8 -28 -35 -46 -74 -32 -71 -49 17 -111 20
-14 21 -20 11 -40 -6 -13 -18 -40 -26 -59 -43 -106 -54 -124 -84 -147 -29 -22
-40 -25 -83 -19 -27 4 -68 13 -91 21 -72 26 -80 22 -128 -61 -41 -71 -53 -102
-81 -211 l-11 -43 -359 0 -360 0 -1 28 c-7 293 -19 454 -43 546 -34 133 -65
195 -186 376 -56 84 -107 169 -112 189 -5 20 -16 55 -24 79 -30 90 -2 347 49
447 109 218 314 372 550 415 71 12 249 4 322 -15z"/>
<path d="M1066 2194 c-36 -37 -34 -73 9 -118 35 -37 35 -38 35 -131 0 -84 -2
-94 -19 -100 -11 -3 -32 -19 -48 -34 l-28 -29 -70 28 c-58 23 -70 32 -77 56
-17 63 -86 83 -132 38 -33 -34 -34 -73 -1 -108 26 -28 62 -34 97 -15 16 9 35
5 94 -17 67 -26 74 -31 74 -55 0 -26 -6 -29 -134 -72 -118 -39 -137 -43 -153
-31 -45 34 -123 -8 -123 -66 0 -38 42 -80 80 -80 36 0 80 38 80 69 0 16 23 27
134 64 l135 45 14 -22 c8 -12 33 -30 56 -41 l41 -18 0 -86 c0 -78 -3 -88 -25
-110 -32 -30 -32 -70 0 -105 32 -34 77 -35 110 -1 35 35 33 79 -5 113 -29 25
-30 30 -30 109 0 81 1 84 27 94 25 9 32 4 129 -92 98 -97 102 -103 97 -138
-10 -76 78 -121 132 -66 51 50 13 135 -59 135 -26 0 -48 16 -135 104 -99 99
-102 104 -89 127 7 13 14 25 14 27 1 1 57 -4 125 -13 92 -11 126 -19 132 -31
33 -58 91 -71 132 -29 34 33 33 78 -1 110 -33 30 -73 32 -103 4 -21 -20 -23
-20 -148 -5 -69 8 -126 17 -127 18 -1 2 -12 25 -24 51 -19 40 -31 52 -71 70
l-49 22 -4 99 c-4 93 -2 101 19 122 32 32 30 78 -3 109 -35 33 -74 32 -108 -1z"/>
</g>
</svg>
