<?xml version="1.0" standalone="no"?>
<!DOCTYPE svg PUBLIC "-//W3C//DTD SVG 20010904//EN"
 "http://www.w3.org/TR/2001/REC-SVG-20010904/DTD/svg10.dtd">
<svg version="1.0" xmlns="http://www.w3.org/2000/svg"
 width="128.000000pt" height="128.000000pt" viewBox="0 0 128.000000 128.000000"
 preserveAspectRatio="xMidYMid meet">

<g transform="translate(0.000000,128.000000) scale(0.100000,-0.100000)"
fill="#000000" stroke="none">
<path d="M510 1224 c-265 -57 -470 -311 -470 -584 0 -324 276 -600 600 -600
276 0 528 205 585 475 43 204 -16 397 -164 546 -149 149 -347 207 -551 163z
m155 -68 c91 -43 165 -141 165 -218 -1 -63 -35 -110 -200 -273 -129 -127 -168
-172 -191 -220 -71 -146 -2 -288 166 -341 32 -10 35 -13 14 -13 -54 -2 -147
22 -216 55 -173 83 -293 257 -310 449 -20 244 135 483 365 562 87 29 144 29
207 -1z m66 -732 c37 -35 47 -85 25 -130 -53 -113 -209 -85 -223 40 -5 43 -3
48 36 87 39 39 44 41 87 36 32 -3 54 -13 75 -33z"/>
<path d="M582 1041 c-100 -64 -67 -205 52 -218 43 -5 48 -3 87 36 39 39 41 44
36 87 -10 91 -102 140 -175 95z"/>
</g>
</svg>
