<svg version="1.0" xmlns="http://www.w3.org/2000/svg" width="170.667" height="170.667" viewBox="0 0 128 128"><path d="M24.5 17c-2.8 1.1-7.2 6-8.4 9.3-.7 1.8-1.1 16.2-1.1 40.1v37.4l3.2 3.1 3.2 3.1h83.2l3.2-6.5L111 97V16l-42.2.1c-23.3 0-43.2.4-44.3.9M106 54v34H30V20h76zm3 39c0 .6-14.7 1.1-41.7 1.2l-41.8.3 41.3.2c26.3.2 41.2.7 41.2 1.3s-14.9 1.1-41.2 1.2l-41.3.3 41 .5c22.6.3 40.3.8 39.5 1.2-.8.5-19.3.9-41 1.1l-39.5.2 39.8.3c25.6.1 39.7.6 39.7 1.2s-14.1 1.1-39.7 1.2l-39.8.3 39.3.2c25.6.2 39.1.7 38.7 1.3s-15.2 1-40.2 1c-39.4 0-39.7 0-42-2.2-3.1-2.9-2.9-4.6.9-8.5l3.2-3.3h41.8c27.2 0 41.8.3 41.8 1"/><path d="M43.6 29.1c-2.5 2-2.6 2.3-2.6 13.4 0 15.6-1 15 26 15 16.3 0 21.1-.3 23.5-1.5l3-1.5V42c0-12.3 0-12.5-2.5-13.7-1.8-.9-8.6-1.3-23.6-1.3-19.9 0-21.3.1-23.8 2.1M60 35.5c0 .9-.9 1.5-2.5 1.5-2.9 0-3 .3-.9 3.5 1.5 2.3 1.5 2.7 0 5-2.1 3.2-2 3.5.9 3.5 1.6 0 2.5.6 2.5 1.5 0 1.1-1.2 1.5-5 1.5-5.6 0-6.2-1-3-5 1.1-1.4 2-3.2 2-4s-.9-2.6-2-4c-3.2-4-2.6-5 3-5 3.8 0 5 .4 5 1.5m21.7 3.1c.8 2.1 2 6 2.8 8.6l1.4 4.8H72.2l2.4-7.8c1.4-4.2 2.7-8.3 2.9-9 .8-2.3 2.8-.8 4.2 3.4M70 45.5c0 1-1.1 1.5-3.5 1.5s-3.5-.5-3.5-1.5 1.1-1.5 3.5-1.5 3.5.5 3.5 1.5"/><path d="M77.3 45c-1 4-1 4 1.7 4s2.8-.1 1.8-4c-.6-2.2-1.3-4-1.7-4s-1.2 1.8-1.8 4M33 66c0 .5 2.3 1 5 1 2.8 0 5-.5 5-1 0-.6-2.2-1-5-1-2.7 0-5 .4-5 1m15 0c0 .5 2.3 1 5 1 2.8 0 5-.5 5-1 0-.6-2.2-1-5-1-2.7 0-5 .4-5 1m15 0c0 .5 2.3 1 5 1 2.8 0 5-.5 5-1 0-.6-2.2-1-5-1-2.7 0-5 .4-5 1m15 0c0 .5 2.3 1 5 1 2.8 0 5-.5 5-1 0-.6-2.2-1-5-1-2.7 0-5 .4-5 1m15 0c0 .5 2.3 1 5 1 2.8 0 5-.5 5-1 0-.6-2.2-1-5-1-2.7 0-5 .4-5 1m-60 7c0 .5 2.3 1 5 1 2.8 0 5-.5 5-1 0-.6-2.2-1-5-1-2.7 0-5 .4-5 1m15 0c0 .5 2.3 1 5 1 2.8 0 5-.5 5-1 0-.6-2.2-1-5-1-2.7 0-5 .4-5 1m15 0c0 .5 2.3 1 5 1 2.8 0 5-.5 5-1 0-.6-2.2-1-5-1-2.7 0-5 .4-5 1m15 0c0 .5 2.3 1 5 1 2.8 0 5-.5 5-1 0-.6-2.2-1-5-1-2.7 0-5 .4-5 1m15 0c0 .5 2.3 1 5 1 2.8 0 5-.5 5-1 0-.6-2.2-1-5-1-2.7 0-5 .4-5 1m-60 7c0 .5 2.3 1 5 1 2.8 0 5-.5 5-1 0-.6-2.2-1-5-1-2.7 0-5 .4-5 1m15 0c0 .5 2.3 1 5 1 2.8 0 5-.5 5-1 0-.6-2.2-1-5-1-2.7 0-5 .4-5 1m15 0c0 .5 2.3 1 5 1 2.8 0 5-.5 5-1 0-.6-2.2-1-5-1-2.7 0-5 .4-5 1m15 0c0 .5 2.3 1 5 1 2.8 0 5-.5 5-1 0-.6-2.2-1-5-1-2.7 0-5 .4-5 1m15 0c0 .5 2.3 1 5 1 2.8 0 5-.5 5-1 0-.6-2.2-1-5-1-2.7 0-5 .4-5 1"/></svg>