<?xml version="1.0" standalone="no"?>
<!DOCTYPE svg PUBLIC "-//W3C//DTD SVG 20010904//EN"
 "http://www.w3.org/TR/2001/REC-SVG-20010904/DTD/svg10.dtd">
<svg version="1.0" xmlns="http://www.w3.org/2000/svg"
 width="256.000000pt" height="256.000000pt" viewBox="0 0 256.000000 256.000000"
 preserveAspectRatio="xMidYMid meet">

<g transform="translate(0.000000,256.000000) scale(0.100000,-0.100000)"
fill="#000000" stroke="none">
<path d="M1535 1964 c-144 -67 -170 -84 -180 -115 -5 -15 329 -752 481 -1061
45 -92 55 -92 226 -13 134 62 188 99 188 129 0 25 -502 1092 -522 1109 -11 9
-28 17 -37 16 -9 0 -79 -30 -156 -65z m185 -74 c21 -11 45 -74 35 -91 -13 -20
-237 -120 -257 -113 -24 7 -51 60 -43 85 5 14 44 38 118 74 126 60 122 59 147
45z m89 -182 c27 -28 35 -53 23 -74 -11 -20 -215 -114 -247 -114 -19 0 -30 9
-42 34 -9 19 -13 42 -9 51 5 15 216 123 243 124 7 1 21 -9 32 -21z"/>
<path d="M400 1990 c-20 -20 -20 -33 -20 -628 l0 -609 23 -21 c22 -21 33 -22
193 -22 165 0 171 1 192 23 l22 23 0 607 c0 594 0 607 -20 627 -18 18 -33 20
-195 20 -162 0 -177 -2 -195 -20z m331 -110 c14 -8 19 -21 19 -50 0 -64 -14
-70 -151 -70 -66 0 -129 5 -140 10 -26 14 -27 94 -1 109 23 14 248 14 273 1z
m7 -192 c16 -16 16 -80 0 -96 -17 -17 -269 -17 -286 0 -16 16 -16 80 0 96 8 8
54 12 143 12 89 0 135 -4 143 -12z"/>
<path d="M899 1991 l-24 -19 -3 -579 c-2 -318 0 -593 3 -611 12 -68 25 -72
215 -72 157 0 172 2 190 20 20 20 20 33 20 634 l0 615 -22 15 c-18 13 -54 16
-189 16 -149 0 -169 -2 -190 -19z m329 -113 c7 -7 12 -31 12 -55 0 -57 -14
-63 -152 -63 -133 0 -158 10 -158 65 0 59 16 65 159 65 85 0 131 -4 139 -12z
m7 -238 l0 -55 -139 -3 c-93 -2 -143 1 -152 9 -17 14 -18 81 -2 97 9 9 52 12
153 10 l140 -3 0 -55z"/>
</g>
</svg>
