<?xml version="1.0" standalone="no"?>
<!DOCTYPE svg PUBLIC "-//W3C//DTD SVG 20010904//EN"
 "http://www.w3.org/TR/2001/REC-SVG-20010904/DTD/svg10.dtd">
<svg version="1.0" xmlns="http://www.w3.org/2000/svg"
 width="256.000000pt" height="256.000000pt" viewBox="0 0 256.000000 256.000000"
 preserveAspectRatio="xMidYMid meet">

<g transform="translate(0.000000,256.000000) scale(0.100000,-0.100000)"
fill="#000000" stroke="none">
<path d="M1065 2370 c-233 -50 -403 -146 -568 -320 -141 -149 -232 -320 -272
-512 -127 -602 278 -1191 887 -1288 112 -18 331 -8 433 20 239 65 449 206 595
398 111 146 192 356 209 542 50 536 -287 1011 -819 1152 -113 30 -345 34 -465
8z m430 -139 c273 -66 495 -241 623 -490 l44 -86 -77 -3 c-75 -3 -77 -2 -115
32 -116 105 -278 129 -415 61 -51 -24 -57 -25 -275 -25 -218 0 -224 1 -275 25
-137 67 -300 46 -408 -54 -44 -41 -45 -41 -121 -41 -76 0 -77 1 -71 23 4 12
23 51 42 87 141 262 409 449 704 490 90 12 249 4 344 -19z m-549 -604 c145
-75 172 -269 52 -384 -146 -141 -391 -33 -391 172 0 96 62 188 149 221 48 18
148 13 190 -9z m404 -77 l0 -100 -70 0 -70 0 0 100 0 100 70 0 70 0 0 -100z
m465 76 c87 -40 135 -115 135 -209 0 -140 -112 -245 -251 -235 -192 14 -286
242 -161 390 36 43 115 78 177 78 31 0 69 -9 100 -24z m-1342 -242 c10 -134
110 -267 235 -314 128 -49 275 -21 376 71 54 49 116 151 116 190 0 43 10 49
80 49 l67 0 7 -37 c10 -61 51 -139 99 -187 176 -176 469 -135 585 81 30 57 59
183 47 204 -4 5 21 9 59 9 62 0 66 -1 72 -26 4 -15 4 -83 1 -153 -11 -256
-105 -462 -294 -642 -123 -117 -269 -196 -439 -236 -113 -26 -329 -23 -437 5
-335 90 -596 351 -682 678 -23 89 -35 218 -28 301 l6 73 62 0 62 0 6 -66z"/>
<path d="M813 1513 c-34 -7 -73 -59 -73 -98 0 -41 39 -91 77 -98 36 -7 86 14
107 44 50 71 -22 170 -111 152z"/>
<path d="M1676 1505 c-42 -22 -55 -44 -56 -91 0 -73 67 -118 135 -90 48 20 71
72 55 122 -19 58 -83 86 -134 59z"/>
<path d="M740 948 c0 -56 29 -159 62 -222 41 -78 146 -183 223 -223 210 -110
465 -72 630 92 91 91 138 191 160 343 l7 42 -541 0 -541 0 0 -32z m670 -103
l0 -65 -135 0 -135 0 0 65 0 65 135 0 135 0 0 -65z m-76 -216 c21 -6 57 -28
80 -49 l41 -39 -30 -12 c-64 -27 -315 -19 -315 9 0 17 34 53 63 69 66 34 102
39 161 22z"/>
</g>
</svg>
