<?xml version="1.0" standalone="no"?>
<!DOCTYPE svg PUBLIC "-//W3C//DTD SVG 20010904//EN"
 "http://www.w3.org/TR/2001/REC-SVG-20010904/DTD/svg10.dtd">
<svg version="1.0" xmlns="http://www.w3.org/2000/svg"
 width="256.000000pt" height="256.000000pt" viewBox="0 0 256.000000 256.000000"
 preserveAspectRatio="xMidYMid meet">

<g transform="translate(0.000000,256.000000) scale(0.100000,-0.100000)"
fill="#000000" stroke="none">
<path d="M592 1995 c-234 -74 -271 -379 -62 -518 49 -33 50 -29 50 148 l0 165
-35 14 c-37 16 -48 49 -23 74 21 21 77 14 103 -13 l25 -24 0 -633 c0 -431 4
-646 11 -673 6 -22 28 -56 48 -76 86 -86 220 -70 289 34 25 38 27 49 31 169
l3 128 414 0 415 0 -3 513 c-3 468 -5 515 -21 544 -30 55 -78 103 -131 131
l-51 27 -510 2 c-408 2 -519 -1 -553 -12z"/>
<path d="M1130 633 c0 -97 -20 -155 -67 -205 l-27 -28 485 0 485 0 52 26 c87
43 132 126 132 241 l0 53 -530 0 -530 0 0 -87z"/>
</g>
</svg>
