<?xml version="1.0" standalone="no"?>
<!DOCTYPE svg PUBLIC "-//W3C//DTD SVG 20010904//EN"
 "http://www.w3.org/TR/2001/REC-SVG-20010904/DTD/svg10.dtd">
<svg version="1.0" xmlns="http://www.w3.org/2000/svg"
 width="512.000000pt" height="512.000000pt" viewBox="0 0 512.000000 512.000000"
 preserveAspectRatio="xMidYMid meet">

<g transform="translate(0.000000,512.000000) scale(0.100000,-0.100000)"
fill="#000000" stroke="none">
<path d="M1652 3856 c-503 -168 -924 -312 -936 -320 -55 -35 -58 -126 -6 -170
21 -17 294 -112 952 -332 l923 -307 923 307 c657 219 931 315 952 332 56 48
47 145 -17 177 -43 22 -1836 617 -1858 617 -11 0 -431 -137 -933 -304z"/>
<path d="M4148 3011 l-108 -35 0 -558 0 -557 -46 -20 c-65 -29 -145 -115 -172
-185 -21 -56 -22 -71 -22 -417 l0 -359 29 -32 29 -33 276 -3 c305 -3 321 -1
351 59 14 26 16 78 13 387 -3 343 -4 359 -25 404 -29 63 -96 134 -160 170
l-53 30 -2 592 -3 592 -107 -35z"/>
<path d="M1390 2496 c0 -453 -8 -415 110 -521 188 -169 443 -302 695 -363 248
-61 548 -60 795 3 243 61 497 196 680 360 118 106 110 68 110 521 l0 392 -567
-189 c-475 -158 -578 -189 -626 -189 -48 0 -144 29 -585 176 -290 97 -546 182
-569 189 l-43 13 0 -392z"/>
</g>
</svg>
