<?xml version="1.0" standalone="no"?>
<!DOCTYPE svg PUBLIC "-//W3C//DTD SVG 20010904//EN"
 "http://www.w3.org/TR/2001/REC-SVG-20010904/DTD/svg10.dtd">
<svg version="1.0" xmlns="http://www.w3.org/2000/svg"
 width="128.000000pt" height="128.000000pt" viewBox="0 0 128.000000 128.000000"
 preserveAspectRatio="xMidYMid meet" class="th_color_1">

<g transform="translate(0.000000,128.000000) scale(0.100000,-0.100000)"
fill="#000000" stroke="none">
<path d="M361 1164 c-17 -14 -31 -30 -31 -35 0 -5 -25 -46 -56 -91 -34 -50
-54 -88 -51 -100 3 -10 -5 -30 -16 -45 -14 -17 -22 -42 -22 -69 -1 -23 -7 -49
-14 -58 -8 -9 -11 -28 -8 -44 4 -19 -1 -38 -14 -58 -23 -35 -24 -72 -3 -102
28 -41 114 -22 169 37 17 17 33 31 37 31 5 0 8 -85 8 -190 l0 -190 -30 0 c-23
0 -30 -4 -30 -20 0 -20 7 -20 440 -20 433 0 440 0 440 20 0 17 -7 20 -50 20
l-50 0 0 135 0 135 45 0 c41 0 45 2 45 24 0 13 -6 29 -14 35 -8 6 -17 37 -21
69 -4 31 -13 65 -21 76 -8 11 -14 28 -14 37 0 9 -23 48 -50 87 -71 102 -100
113 -152 61 l-31 -30 -36 35 -37 36 -64 -65 c-35 -36 -70 -65 -76 -65 -7 0
-15 18 -19 39 -4 22 -13 45 -21 52 -8 6 -14 23 -14 38 0 16 -23 59 -60 111
-97 136 -123 152 -179 104z m128 -121 c38 -54 61 -97 61 -113 0 -15 7 -33 15
-40 8 -6 21 -37 30 -67 l16 -56 -57 -58 -57 -58 -38 20 c-63 32 -97 23 -192
-53 -79 -62 -118 -32 -56 44 28 36 30 42 15 50 -22 12 -20 35 4 55 21 18 27
43 10 43 -17 0 -11 25 15 61 17 21 24 42 21 55 -4 14 5 36 24 63 17 22 30 44
30 49 0 19 63 92 80 92 12 0 40 -30 79 -87z m520 -222 c22 -33 41 -66 41 -75
0 -9 7 -28 16 -42 33 -49 6 -32 -75 50 -75 75 -82 86 -72 105 20 36 45 25 90
-38z m-47 -108 c87 -87 158 -161 158 -165 0 -5 -10 -8 -23 -8 -15 0 -63 41
-157 135 -74 74 -139 135 -145 135 -6 0 -69 -58 -140 -130 -109 -109 -135
-130 -160 -130 -28 0 -19 11 130 160 88 88 164 160 170 160 5 0 81 -71 167
-157z m78 -320 l0 -143 -140 0 -140 0 0 90 0 90 -55 0 -55 0 0 -90 0 -90 -55
0 -55 0 0 137 0 138 127 127 128 128 122 -122 123 -123 0 -142z m-576 228 c3
-5 -1 -14 -9 -21 -13 -10 -15 -9 -15 9 0 21 14 28 24 12z m36 -236 l0 -135
-30 0 -30 0 0 135 0 135 30 0 30 0 0 -135z m230 -60 c0 -73 -1 -75 -25 -75
-24 0 -25 2 -25 75 0 73 1 75 25 75 24 0 25 -2 25 -75z"/>
<path d="M650 545 l0 -65 55 0 55 0 0 65 0 65 -55 0 -55 0 0 -65z m80 0 c0
-31 -3 -35 -25 -35 -22 0 -25 4 -25 35 0 31 3 35 25 35 22 0 25 -4 25 -35z"/>
<path d="M840 545 l0 -65 55 0 55 0 0 65 0 65 -55 0 -55 0 0 -65z m80 0 c0
-31 -3 -35 -25 -35 -22 0 -25 4 -25 35 0 31 3 35 25 35 22 0 25 -4 25 -35z"/>
<path d="M840 365 l0 -65 55 0 55 0 0 65 0 65 -55 0 -55 0 0 -65z m80 0 c0
-31 -3 -35 -25 -35 -22 0 -25 4 -25 35 0 31 3 35 25 35 22 0 25 -4 25 -35z"/>
</g>
</svg>
