<?xml version="1.0" standalone="no"?>
<!DOCTYPE svg PUBLIC "-//W3C//DTD SVG 20010904//EN"
 "http://www.w3.org/TR/2001/REC-SVG-20010904/DTD/svg10.dtd">
<svg version="1.0" xmlns="http://www.w3.org/2000/svg"
 width="128.000000pt" height="128.000000pt" viewBox="0 0 128.000000 128.000000"
 preserveAspectRatio="xMidYMid meet">

<g transform="translate(0.000000,128.000000) scale(0.100000,-0.100000)"
fill="#000000" stroke="none">
<path d="M468 1185 c-64 -36 -54 -152 16 -190 63 -34 112 1 123 87 3 24 9 48
14 53 29 37 -101 79 -153 50z"/>
<path d="M424 955 c-41 -41 -105 -221 -92 -257 6 -15 115 -44 139 -36 7 2 20
33 30 69 l18 64 -26 38 c-14 20 -24 40 -21 42 2 3 19 -18 37 -45 18 -28 41
-55 52 -61 51 -27 194 -19 194 11 0 10 -9 14 -25 14 -40 -3 -123 17 -142 33
-9 8 -26 38 -38 66 -12 29 -29 60 -38 70 -22 24 -59 21 -88 -8z m75 11 c-2 -2
-15 -9 -29 -16 -23 -12 -24 -12 -11 3 7 10 20 17 29 17 8 0 13 -2 11 -4z"/>
<path d="M500 676 c0 -32 -27 -39 -95 -24 -65 15 -78 12 -49 -12 12 -11 14
-27 8 -94 -4 -45 -15 -100 -25 -124 -11 -24 -19 -52 -19 -63 0 -18 6 -21 56
-23 23 -1 63 102 77 198 l11 78 44 -6 c59 -8 62 -11 62 -61 0 -50 9 -59 50
-50 l30 7 -6 66 c-9 87 -15 97 -68 111 -59 15 -76 14 -76 -3z"/>
<path d="M777 509 c-54 -33 -71 -38 -82 -29 -11 9 -26 9 -63 0 -44 -10 -49
-14 -44 -36 2 -13 11 -24 20 -24 11 0 3 -14 -25 -42 -24 -25 -48 -64 -57 -93
-17 -49 -89 -145 -101 -133 -4 3 10 24 30 46 l36 40 -36 13 c-19 7 -35 19 -35
26 0 12 -42 35 -86 47 -17 5 -23 1 -28 -16 -9 -33 -8 -36 11 -40 13 -2 2 -13
-36 -36 -53 -33 -53 -33 -35 -54 11 -12 46 -38 78 -60 l59 -38 272 0 271 0 50
31 c54 34 124 98 124 113 0 5 -6 17 -14 25 -7 9 -23 46 -36 84 -12 37 -30 73
-39 80 -10 6 -20 17 -22 23 -7 19 -116 114 -130 114 -8 0 -45 -18 -82 -41z
m105 -7 c2 -4 19 -20 39 -35 20 -15 36 -35 35 -44 0 -9 10 -23 24 -29 18 -10
31 -32 47 -80 13 -38 23 -72 23 -78 0 -17 -100 86 -141 146 -42 62 -77 98 -93
98 -5 0 2 -13 17 -28 39 -41 33 -52 -6 -13 l-34 32 -42 -36 c-42 -34 -61 -43
-61 -27 0 8 11 15 99 69 54 32 86 41 93 25z m-143 -238 c71 -77 64 -91 -9 -19
-33 33 -60 63 -60 67 0 19 22 4 69 -48z m-94 -4 c33 -27 77 -62 97 -77 21 -15
38 -31 38 -34 0 -4 -18 -3 -41 2 -32 8 -49 6 -85 -10 -51 -23 -55 -18 -17 21
30 32 26 40 -29 58 -21 6 -40 15 -43 20 -6 10 5 70 14 70 4 0 34 -22 66 -50z"/>
</g>
</svg>
