<?xml version="1.0" standalone="no"?>
<!DOCTYPE svg PUBLIC "-//W3C//DTD SVG 20010904//EN"
 "http://www.w3.org/TR/2001/REC-SVG-20010904/DTD/svg10.dtd">
<svg version="1.0" xmlns="http://www.w3.org/2000/svg"
 width="256.000000pt" height="256.000000pt" viewBox="0 0 256.000000 256.000000"
 preserveAspectRatio="xMidYMid meet">

<g transform="translate(0.000000,256.000000) scale(0.100000,-0.100000)"
fill="#000000" stroke="none">
<path d="M925 2316 c-62 -27 -70 -46 -74 -182 l-3 -123 -217 -3 c-211 -3 -219
-4 -253 -27 -19 -13 -46 -40 -59 -59 -24 -35 -24 -36 -27 -359 l-3 -323 126 0
125 0 0 -95 0 -95 65 0 65 0 0 95 0 95 91 0 c68 0 90 3 86 13 -2 6 9 27 26 45
l31 32 -31 33 -30 32 21 85 22 85 49 3 c64 4 75 14 75 73 l0 48 43 11 c23 6
58 15 77 21 54 14 82 11 107 -13 l23 -21 23 21 c28 27 60 27 152 4 l70 -18 3
-49 c2 -27 8 -55 13 -62 6 -6 34 -13 62 -15 l51 -3 22 -85 21 -85 -30 -32 -31
-33 33 -34 c18 -19 30 -39 27 -45 -5 -8 22 -11 88 -11 l96 0 0 -95 0 -95 65 0
65 0 0 95 0 95 125 0 125 0 0 309 c0 195 -4 320 -11 338 -15 40 -57 82 -104
104 -35 16 -67 19 -252 19 l-213 0 0 115 c0 132 -9 159 -62 186 -34 18 -61 19
-340 19 -229 -1 -310 -4 -333 -14z m633 -74 c21 -12 22 -19 22 -122 l0 -110
-325 0 -325 0 0 109 c0 119 0 120 60 132 63 13 542 6 568 -9z"/>
<path d="M1125 1656 c-37 -11 -40 -14 -43 -51 -5 -56 -43 -95 -93 -95 -35 0
-39 -3 -48 -37 -16 -55 -14 -67 14 -93 31 -29 32 -70 4 -96 -36 -33 -40 -49
-22 -98 17 -44 19 -46 58 -46 56 0 85 -31 85 -88 0 -39 2 -42 38 -51 52 -15
55 -14 82 14 17 18 34 25 60 25 26 0 43 -7 60 -25 27 -28 30 -29 83 -14 35 9
37 12 37 53 0 57 30 86 88 86 45 0 56 11 67 70 5 30 2 39 -24 64 -38 37 -40
74 -6 106 28 26 30 38 14 93 -9 34 -13 37 -48 37 -52 0 -91 41 -91 96 0 40 -1
41 -47 52 -45 10 -50 9 -74 -14 -35 -33 -87 -33 -119 1 -13 14 -26 25 -29 24
-3 0 -24 -6 -46 -13z m199 -120 c100 -30 159 -109 158 -213 0 -46 -6 -64 -36
-109 -48 -71 -99 -98 -186 -98 -141 0 -228 93 -218 234 5 71 39 126 99 159 76
43 112 48 183 27z"/>
<path d="M1194 1494 c-75 -36 -109 -89 -109 -169 0 -49 5 -69 24 -97 40 -58
86 -83 151 -83 43 0 65 6 92 24 135 93 106 287 -51 340 -45 15 -48 14 -107
-15z m131 -109 c32 -31 32 -75 1 -112 -19 -22 -32 -28 -66 -28 -80 0 -120 88
-64 140 37 34 96 34 129 0z"/>
<path d="M290 828 c0 -343 1 -364 20 -404 12 -24 39 -54 62 -70 l41 -29 851 0
851 0 36 24 c20 14 47 41 60 60 l24 35 3 373 3 373 -101 0 -100 0 0 -95 0 -95
-115 0 -115 0 0 95 0 95 -75 0 -74 0 -10 -37 c-6 -21 -11 -44 -11 -50 0 -9
-17 -13 -53 -13 -29 0 -58 -5 -65 -12 -7 -7 -12 -35 -12 -63 l0 -51 -96 -23
-96 -23 -29 28 -29 28 -29 -28 -29 -28 -96 23 -96 23 0 52 c0 62 -10 72 -75
76 l-49 3 -11 45 -11 45 -72 3 -72 3 0 -96 0 -95 -115 0 -115 0 0 95 0 95
-100 0 -100 0 0 -362z"/>
</g>
</svg>
