<?xml version="1.0" standalone="no"?>
<!DOCTYPE svg PUBLIC "-//W3C//DTD SVG 20010904//EN"
 "http://www.w3.org/TR/2001/REC-SVG-20010904/DTD/svg10.dtd">
<svg version="1.0" xmlns="http://www.w3.org/2000/svg"
 width="160.000000pt" height="160.000000pt" viewBox="0 0 160.000000 160.000000"
 preserveAspectRatio="xMidYMid meet">

<g transform="translate(0.000000,160.000000) scale(0.100000,-0.100000)"
fill="#000000" stroke="none">
<path d="M702 1471 c-96 -33 -160 -117 -169 -223 -5 -54 -4 -58 15 -58 30 0
90 66 103 114 6 23 13 47 15 55 3 9 13 11 32 7 100 -25 201 -15 252 25 l25 19
-28 25 c-30 27 -114 55 -161 55 -17 -1 -55 -9 -84 -19z"/>
<path d="M965 1355 c-51 -42 -117 -58 -204 -51 l-76 7 -16 -39 -16 -39 28 10
c59 23 112 -39 55 -64 -33 -15 -77 -3 -83 22 -5 19 -7 19 -32 -8 -14 -15 -39
-37 -55 -49 l-28 -20 22 -45 c32 -65 77 -106 137 -129 68 -25 118 -25 187 1
108 40 183 159 174 277 -4 51 -42 153 -57 152 -3 -1 -19 -12 -36 -25z m-44
-115 c27 -15 24 -48 -6 -62 -53 -24 -113 27 -69 59 21 16 48 17 75 3z m-178
-174 c47 -19 48 -19 104 2 59 22 82 20 62 -4 -21 -26 -113 -46 -156 -35 -47
13 -85 39 -77 52 3 6 9 9 12 7 4 -2 28 -11 55 -22z"/>
<path d="M907 927 c-58 -29 -141 -33 -209 -10 l-58 20 0 -34 c0 -49 25 -102
71 -149 l40 -41 -63 -57 c-35 -31 -66 -56 -70 -56 -5 0 -8 50 -8 110 l0 110
-32 -1 c-44 0 -137 -37 -191 -75 -47 -34 -87 -101 -87 -147 l0 -27 495 0 c465
0 495 1 495 18 0 75 -60 157 -143 195 -56 26 -145 52 -152 45 -2 -2 -7 -54
-11 -116 -4 -62 -10 -112 -13 -112 -3 0 -34 25 -69 56 l-63 57 39 41 c54 55
74 98 70 149 l-3 42 -38 -18z"/>
<path d="M920 475 l0 -25 -315 0 -315 0 0 -55 0 -55 315 0 315 0 0 -25 c0 -24
2 -25 70 -25 68 0 70 1 70 25 l0 25 120 0 120 0 0 55 0 55 -120 0 -120 0 0 25
c0 24 -2 25 -70 25 -68 0 -70 -1 -70 -25z m90 -80 c0 -48 -2 -55 -20 -55 -18
0 -20 7 -20 55 0 48 2 55 20 55 18 0 20 -7 20 -55z m-90 0 l0 -25 -300 0 -300
0 0 25 0 25 300 0 300 0 0 -25z m350 0 l0 -25 -105 0 -105 0 0 25 0 25 105 0
105 0 0 -25z"/>
<path d="M360 250 c0 -38 4 -50 15 -50 11 0 15 12 15 50 0 38 -4 50 -15 50
-11 0 -15 -12 -15 -50z"/>
<path d="M610 250 c0 -38 4 -50 15 -50 11 0 15 12 15 50 0 38 -4 50 -15 50
-11 0 -15 -12 -15 -50z"/>
<path d="M850 250 c0 -38 4 -50 15 -50 11 0 15 12 15 50 0 38 -4 50 -15 50
-11 0 -15 -12 -15 -50z"/>
<path d="M1090 250 c0 -38 4 -50 15 -50 11 0 15 12 15 50 0 38 -4 50 -15 50
-11 0 -15 -12 -15 -50z"/>
<path d="M300 230 c0 -20 5 -30 15 -30 10 0 15 10 15 30 0 20 -5 30 -15 30
-10 0 -15 -10 -15 -30z"/>
<path d="M420 230 c0 -20 5 -30 15 -30 10 0 15 10 15 30 0 20 -5 30 -15 30
-10 0 -15 -10 -15 -30z"/>
<path d="M480 230 c0 -20 5 -30 15 -30 10 0 15 10 15 30 0 20 -5 30 -15 30
-10 0 -15 -10 -15 -30z"/>
<path d="M540 230 c0 -20 5 -30 15 -30 10 0 15 10 15 30 0 20 -5 30 -15 30
-10 0 -15 -10 -15 -30z"/>
<path d="M670 230 c0 -20 5 -30 15 -30 10 0 15 10 15 30 0 20 -5 30 -15 30
-10 0 -15 -10 -15 -30z"/>
<path d="M730 230 c0 -20 5 -30 15 -30 10 0 15 10 15 30 0 20 -5 30 -15 30
-10 0 -15 -10 -15 -30z"/>
<path d="M790 230 c0 -20 5 -30 15 -30 10 0 15 10 15 30 0 20 -5 30 -15 30
-10 0 -15 -10 -15 -30z"/>
<path d="M910 230 c0 -20 5 -30 15 -30 10 0 15 10 15 30 0 20 -5 30 -15 30
-10 0 -15 -10 -15 -30z"/>
<path d="M970 230 c0 -20 5 -30 15 -30 10 0 15 10 15 30 0 20 -5 30 -15 30
-10 0 -15 -10 -15 -30z"/>
<path d="M1030 230 c0 -20 5 -30 15 -30 10 0 15 10 15 30 0 20 -5 30 -15 30
-10 0 -15 -10 -15 -30z"/>
<path d="M1150 230 c0 -20 5 -30 15 -30 10 0 15 10 15 30 0 20 -5 30 -15 30
-10 0 -15 -10 -15 -30z"/>
<path d="M1210 230 c0 -20 5 -30 15 -30 10 0 15 10 15 30 0 20 -5 30 -15 30
-10 0 -15 -10 -15 -30z"/>
<path d="M1270 230 c0 -20 5 -30 15 -30 10 0 15 10 15 30 0 20 -5 30 -15 30
-10 0 -15 -10 -15 -30z"/>
</g>
</svg>
