<?xml version="1.0" standalone="no"?>
<!DOCTYPE svg PUBLIC "-//W3C//DTD SVG 20010904//EN"
 "http://www.w3.org/TR/2001/REC-SVG-20010904/DTD/svg10.dtd">
<svg version="1.0" xmlns="http://www.w3.org/2000/svg"
 width="128.000000pt" height="128.000000pt" viewBox="0 0 128.000000 128.000000"
 preserveAspectRatio="xMidYMid meet">

<g transform="translate(0.000000,128.000000) scale(0.100000,-0.100000)"
fill="#000000" stroke="none">
<path d="M552 1149 c13 -37 9 -41 -43 -48 l-41 -6 -5 -70 c-5 -77 -26 -123
-57 -127 -15 -2 -24 -16 -34 -52 -12 -43 -12 -53 2 -83 11 -23 22 -33 39 -33
22 0 23 -3 24 -84 1 -89 11 -121 42 -131 34 -10 34 -89 0 -98 -20 -5 -20 -6
-1 -44 11 -21 29 -47 41 -57 22 -20 28 -51 12 -60 -11 -7 -60 53 -86 104 -10
19 -19 37 -21 38 -6 8 -165 -81 -201 -113 l-38 -33 34 -36 35 -36 386 0 386 0
28 29 27 28 -68 51 c-65 48 -165 102 -187 102 -6 0 -26 -25 -45 -54 -19 -30
-47 -64 -62 -75 l-29 -22 0 24 c0 13 15 37 34 56 37 36 53 78 37 94 -6 6 -11
31 -11 55 0 39 5 49 44 88 24 24 56 46 71 50 36 9 59 46 50 81 -3 15 -12 31
-18 35 -9 6 -9 10 -1 16 16 10 44 96 44 135 0 22 -10 42 -30 64 -39 41 -51 75
-43 115 l6 33 -21 -19 -22 -19 0 44 c0 43 -1 45 -49 67 -67 30 -83 29 -71 -4
6 -14 10 -32 10 -41 0 -15 -2 -15 -17 -1 -26 23 -93 54 -130 61 -32 6 -32 6
-21 -24z m43 -194 c44 -14 91 -25 105 -26 76 -2 130 -55 130 -126 0 -31 -1
-32 -27 -20 -29 13 -84 47 -93 58 -19 24 -90 39 -90 19 0 -18 -47 -10 -83 14
-20 14 -45 26 -56 28 -21 3 -21 4 5 41 15 20 28 37 28 37 1 0 37 -11 81 -25z
m-75 -97 c11 -7 20 -17 20 -21 0 -10 -50 -78 -65 -89 -19 -14 -55 -8 -76 13
-17 17 -20 28 -14 57 10 55 22 65 72 58 23 -3 52 -11 63 -18z m188 -48 c38
-23 41 -48 12 -95 -18 -29 -44 -44 -76 -45 -6 0 -23 11 -38 25 -21 20 -26 33
-26 73 0 27 3 52 7 55 14 14 89 6 121 -13z m-134 -115 c18 -28 53 -45 89 -45
30 1 75 42 93 85 16 40 17 41 43 19 17 -15 18 -20 5 -50 -8 -18 -14 -36 -14
-39 0 -11 23 -4 47 15 31 24 39 25 47 4 9 -23 -12 -54 -37 -54 -27 0 -32 -4
-84 -62 -41 -46 -43 -50 -43 -112 0 -57 -3 -67 -21 -77 -22 -11 -22 -10 -16
52 6 61 5 65 -20 83 -19 14 -49 21 -105 24 -43 3 -80 7 -82 11 -2 3 -6 22 -10
42 -6 35 -5 36 19 31 32 -6 32 11 0 32 -27 18 -32 40 -12 53 7 4 26 26 43 47
l29 39 6 -35 c3 -20 13 -48 23 -63z m65 -189 c30 -16 31 -19 31 -82 l0 -65
-36 -15 c-45 -19 -64 -12 -64 21 0 18 -5 25 -20 25 -34 0 -23 28 13 33 31 4
31 4 -5 5 -26 1 -38 7 -38 16 0 11 10 14 38 11 l37 -5 -38 13 c-49 16 -44 33
8 30 l40 -2 -42 12 c-23 7 -45 16 -50 20 -14 15 92 0 126 -17z"/>
<path d="M452 806 c1 -10 8 -17 13 -17 15 1 12 24 -3 29 -9 3 -13 -2 -10 -12z"/>
<path d="M634 753 c2 -9 8 -19 13 -20 17 -6 27 18 12 28 -21 13 -28 11 -25 -8z"/>
<path d="M485 680 c3 -5 8 -10 11 -10 2 0 4 5 4 10 0 6 -5 10 -11 10 -5 0 -7
-4 -4 -10z"/>
</g>
</svg>
