<svg version="1.0" xmlns="http://www.w3.org/2000/svg" width="274.667" height="274.667" viewBox="0 0 206 206"><path d="M91.1 62.2c-8.1 4-12.9 14.3-11.8 25.4l.6 5.4H48.1l-17.5 10.6L13 114.1V143h17.3c16.4 0 17.4.1 22.1 2.5 6.6 3.4 13.6 3.4 20.2 0 4.9-2.5 5.1-2.5 31.6-2.5 26.6 0 26.7 0 31.4 2.5 6.3 3.4 13.3 3.4 20 0 3.6-1.8 6.5-2.5 10.9-2.5h6l8.8-8.8 8.7-8.7V65h-44v5.5c0 3-.1 5.5-.2 5.5-.2 0-2.7-.9-5.7-2.1-3-1.1-8.4-2.3-12-2.6-5.9-.5-7.1-1-10.9-4.5-2.4-2.2-5.9-4.6-7.7-5.4-5.1-2.1-13.2-1.8-18.4.8m16.8 10.4c4.7 3.3 6.5 12.2 3.7 18.8-1.8 4.4-5.2 6.6-10.1 6.6s-8.3-2.2-10.1-6.6c-.8-1.8-1.4-3.6-1.4-3.9s2.6-.5 5.8-.5c4.9 0 6.2-.4 8.2-2.5l2.3-2.5h-8.1c-4.5 0-8.2-.2-8.2-.5s.6-2.1 1.4-3.9c1.8-4.4 5.2-6.6 10.1-6.6 2.2 0 5.1.7 6.4 1.6M179 79v3h-22v-6h22zm-40.5 6.2c6 3.1 12.9 10.2 15.5 16.1 1 2.3 1.7 4.3 1.6 4.5-.2.1-1.5-.2-3-.8-7-2.6-16.3-.3-22.3 5.7l-4.2 4.2-18 .3c-16.8.3-18.1.4-21 2.5l-3 2.3-1.6-3.3c-2.2-4.7-7.5-9.6-12.1-11.2-3.5-1.3-2-1.4 17.4-1.5 23.5 0 25.9-.5 28.7-6 .9-1.7 1.5-5.6 1.5-9.6v-6.7l7.8.5c5.6.3 9 1.2 12.7 3M179 104v17h-5.8c-5.7 0-5.8 0-7.1-3.6-.7-2-3.1-5.3-5.2-7.4l-3.9-3.8V87h22zm-123.5 1.1c-4.6 1.3-11 7.3-12.9 11.9l-1.6 4h-8.7c-5.9-.1-8.3-.4-7.3-1 .8-.5 6.9-4.3 13.5-8.4 9.8-6.1 12.7-7.5 16-7.4 4 0 4 0 1 .9M68 116.5c3.2 1.7 6 6.1 6 9.5s-2.8 7.8-6 9.5c-7.8 4-16.3-1-16.3-9.5 0-8.4 8.6-13.5 16.3-9.5m83.6.4c9.3 5.7 5.2 20.1-5.8 20.1-3.2 0-4.7-.7-7.4-3.4-2.8-2.8-3.4-4.2-3.4-7.6s.6-4.8 3.4-7.6c4-4 8.3-4.5 13.2-1.5"/></svg>