<svg version="1.0" xmlns="http://www.w3.org/2000/svg" width="165.333" height="165.333" viewBox="0 0 124 124"><path d="M31.2 13.1c-4.4 2.2-7.6 5.9-9.2 10.6-.5 1.5-3.2 18-6 36.6-5.5 36.8-5.5 37.7-.4 44.4 1.5 1.9 4.6 4.4 7 5.5 4.1 1.8 6.6 1.9 39.2 1.6l34.7-.3 4.8-2.8c3.2-1.9 5.7-4.4 7.8-8 2.7-4.6 3-5.9 2.7-11.9-.5-8.7-3.9-14.1-11.7-18.1-5.3-2.6-6-2.7-21-2.7-15.3 0-15.7.1-21.9 3-3.5 1.7-6.8 3-7.3 3s-.9-6.3-.9-14V46h5c6.9 0 11.4-2 12.9-5.8.9-2 1.2-6.4.9-12.6-.3-9.3-.4-9.7-3.6-12.8L61 11.5l-12.8-.3c-11.4-.3-13.2-.1-17 1.9m28.5 6.1c1.7 1.6 2.3 3.2 2.3 6.5V30h-5c-4.1 0-5-.3-5-1.8 0-2.4-1.9-4.2-4.5-4.2-4.2 0-5.9 4.4-2.9 7.4 1.1 1.2 3.6 1.6 9.5 1.6h8l-.3 2.7-.3 2.8-14.3.3-14.3.3-2.9-3c-3.6-3.6-3.9-8.1-1-12.9s6.9-6.1 18.4-6.2c8.9 0 10.2.2 12.3 2.2M30 40.5c1.6.8 5.2 1.5 8 1.5h5v34.8l-8.9.4c-6.2.3-9.6.9-11.6 2.2-1.5 1-2.8 1.6-3 1.4-.3-.3 5.2-38 6.1-41.8.4-1.4.9-1.9 1.1-1.2.3.7 1.8 1.9 3.3 2.7m67.5 35.8c6.1 3.5 8.8 8.1 8.3 14.5-.5 6-2.8 9.7-7.9 12.7-3.2 1.9-5.5 2-36.4 2.3-30 .2-33.3.1-36.4-1.5-4.9-2.5-7.4-6.4-7.4-11.3 0-5 2.5-8.8 7.4-11.2 2.7-1.4 6-1.8 15.9-1.8 11.8-.1 12.8-.3 18-3 5.3-2.8 6-2.9 20-2.9 13.2-.1 14.8.1 18.5 2.2"/><path d="M25.7 88.8c-3.7 4-.9 10.2 4.6 10.2 1.4 0 3.3-.7 4.1-1.6 2-2 2-6.8 0-8.8-2.1-2.2-6.7-2-8.7.2m70.5 2c-2 6.7-3.9 7.6-16.5 8.2-8 .4-11.2.9-11.5 1.8-.3 1.1 1.9 1.3 11.6 1 11.8-.3 12.1-.4 15.1-3.2 4.2-4 6.2-11.6 3.2-11.6-.4 0-1.3 1.7-1.9 3.8"/></svg>