<svg version="1.0" xmlns="http://www.w3.org/2000/svg" width="157.333" height="157.333" viewBox="0 0 118 118"><path d="M25.5 12.4c-3.8 1.7-6 4.1-8 8.9-1.3 3-1.5 9.6-1.5 40.5 0 36.2 0 36.9 2.3 41.2 1.6 3.3 3.4 5.1 6.7 6.8 4.3 2.2 5.1 2.2 38.7 2.2H98V11H63.3c-26.6.1-35.5.4-37.8 1.4M32 53.5c0 27.2-.3 36.5-1.2 36.5-4.1 0-6.2 6.8-3.1 10.2 1.5 1.7 3.8 1.8 30 1.8H86v-4.5c0-3.3.4-4.5 1.5-4.5 1.2 0 1.5 1.4 1.5 6.5v6.6l-30.6-.3-30.6-.3-2.3-2.7c-1.3-1.5-2.7-4.7-3-7-.3-2.4-.5-19.7-.3-38.6l.3-34.4 3.3-2.9c6.4-5.7 6.2-6.8 6.2 33.6m60 0V90H35V17h57zM83 96v3H56.5c-22.7 0-26.6-.2-27.1-1.5-.4-.8-.4-2.2 0-3 .5-1.3 4.4-1.5 27.1-1.5H83z"/><path d="M49.8 32.1c-2.4 2.5-2.3 8.8.1 11.6 1.8 2.1 2.8 2.3 12 2.3C74 46 76 44.8 76 37.7c0-6.8-1.6-7.7-14.1-7.6-8.9.1-10.7.3-12.1 2"/></svg>
