<?xml version="1.0" encoding="UTF-8"?>
<svg xmlns="http://www.w3.org/2000/svg" xmlns:xlink="http://www.w3.org/1999/xlink" width="80px" height="50px" viewBox="0 0 80 50" version="1.1">
<g id="surface1">
<path style="fill-rule:evenodd;fill:rgb(16.470589%,37.64706%,60.000002%);fill-opacity:1;stroke-width:28.222;stroke-linecap:butt;stroke-linejoin:round;stroke:rgb(20.392157%,39.607844%,64.313728%);stroke-opacity:1;stroke-miterlimit:4;" d="M 4999.902448 6000.187362 L 1000.174052 6000.187362 L 1000.174052 1000.170781 L 9000.022207 1000.170781 L 9000.022207 6000.187362 Z M 4999.902448 6000.187362 " transform="matrix(0.00998115,0,0,0.0100093,-9.971165,-9.999332)"/>
<path style=" stroke:none;fill-rule:evenodd;fill:rgb(100%,100%,100%);fill-opacity:1;" d="M 0.0117188 0.0117188 L 6.917969 0.0117188 L 39.125 20.417969 L 71.324219 0.0117188 L 79.859375 0.0117188 L 79.859375 1.839844 L 44.835938 24.03125 L 79.859375 46.234375 L 79.859375 50.058594 L 75.867188 50.058594 L 39.816406 27.214844 L 3.773438 50.058594 L 0.0117188 50.058594 L 0.0117188 45.203125 L 34.105469 23.59375 L 0.0117188 1.992188 Z M 0.0117188 0.0117188 "/>
<path style=" stroke:none;fill-rule:evenodd;fill:rgb(100%,0%,0%);fill-opacity:1;" d="M 0.0117188 0.0117188 L 2.515625 0.0117188 L 26.648438 15.34375 L 26.648438 17.515625 L 0.0117188 0.589844 Z M 78.371094 0.0117188 L 51.152344 17.304688 L 51.152344 15.535156 L 75.585938 0.0117188 Z M 79.859375 50.058594 L 77.863281 50.058594 L 51.152344 33.089844 L 51.152344 30.917969 L 79.859375 49.144531 Z M 0.0117188 48.023438 L 26.648438 31.097656 L 26.648438 32.878906 L 0.0117188 49.804688 Z M 0.0117188 48.023438 "/>
<path style=" stroke:none;fill-rule:evenodd;fill:rgb(100%,100%,100%);fill-opacity:1;" d="M 43.429688 0.0117188 L 43.429688 20.800781 L 79.859375 20.800781 L 79.859375 27.804688 L 43.429688 27.804688 L 43.429688 50.058594 L 36.441406 50.058594 L 36.441406 27.804688 L 0.0117188 27.804688 L 0.0117188 20.800781 L 36.441406 20.800781 L 36.441406 0.0117188 Z M 43.429688 0.0117188 "/>
<path style=" stroke:none;fill-rule:evenodd;fill:rgb(100%,100%,100%);fill-opacity:1;" d="M 79.847656 29.9375 L 45.832031 29.9375 L 45.832031 50.046875 L 33.9375 50.046875 L 33.9375 29.9375 L 0.0117188 29.9375 L 0.0117188 19.109375 L 33.9375 19.109375 L 33.9375 0.0117188 L 45.832031 0.0117188 L 45.832031 19.109375 L 79.847656 19.109375 Z M 79.847656 29.9375 "/>
<path style=" stroke:none;fill-rule:evenodd;fill:rgb(94.509804%,5.098039%,4.705882%);fill-opacity:1;" d="M 79.847656 27.554688 L 43.628906 27.546875 L 43.628906 50.058594 L 36.492188 50.058594 L 36.492188 27.546875 L 0.0117188 27.546875 L 0.0117188 21.050781 L 36.492188 21.050781 L 36.492188 0.0195312 L 43.628906 0.0195312 L 43.628906 21.050781 L 79.847656 21.050781 Z M 79.847656 27.554688 "/>
</g>
</svg>
